#VRML V2.0 utf8
Shape { appearance Appearance { material Material { diffuseColor 0.850 0.760 0.550 specularColor 0.3 0.3 0.3 shininess 0.4 } }
 geometry IndexedFaceSet { creaseAngle 0.5 coord Coordinate { point [
-0.68898 -0.62992 0.00000,
-0.68898 -0.62992 0.55118,
-0.68898 0.62992 0.00000,
-0.68898 0.62992 0.55118,
0.68898 -0.62992 0.00000,
0.68898 -0.62992 0.55118,
0.68898 0.62992 0.00000,
0.68898 0.62992 0.55118,
-0.68898 -0.62992 0.00000,
0.68898 -0.62992 0.00000,
-0.68898 -0.62992 0.55118,
0.68898 -0.62992 0.55118,
-0.68898 0.62992 0.00000,
0.68898 0.62992 0.00000,
-0.68898 0.62992 0.55118,
0.68898 0.62992 0.55118,
-0.68898 -0.62992 0.00000,
-0.68898 0.62992 0.00000,
0.68898 -0.62992 0.00000,
0.68898 0.62992 0.00000,
-0.68898 -0.62992 0.55118,
-0.68898 0.62992 0.55118,
0.68898 -0.62992 0.55118,
0.68898 0.62992 0.55118] }
 coordIndex [
1,2,0,-1,
1,3,2,-1,
5,4,6,-1,
5,6,7,-1,
11,8,9,-1,
11,10,8,-1,
15,13,12,-1,
15,12,14,-1,
19,16,17,-1,
19,18,16,-1,
23,21,20,-1,
23,20,22,-1] } }
Shape { appearance Appearance { material Material { diffuseColor 0.820 0.820 0.840 specularColor 0.3 0.3 0.3 shininess 0.4 } }
 geometry IndexedFaceSet { creaseAngle 0.5 coord Coordinate { point [
-0.88583 -0.62992 0.00000,
-0.88583 -0.62992 0.55118,
-0.88583 0.62992 0.00000,
-0.88583 0.62992 0.55118,
-0.68898 -0.62992 0.00000,
-0.68898 -0.62992 0.55118,
-0.68898 0.62992 0.00000,
-0.68898 0.62992 0.55118,
-0.88583 -0.62992 0.00000,
-0.68898 -0.62992 0.00000,
-0.88583 -0.62992 0.55118,
-0.68898 -0.62992 0.55118,
-0.88583 0.62992 0.00000,
-0.68898 0.62992 0.00000,
-0.88583 0.62992 0.55118,
-0.68898 0.62992 0.55118,
-0.88583 -0.62992 0.00000,
-0.88583 0.62992 0.00000,
-0.68898 -0.62992 0.00000,
-0.68898 0.62992 0.00000,
-0.88583 -0.62992 0.55118,
-0.88583 0.62992 0.55118,
-0.68898 -0.62992 0.55118,
-0.68898 0.62992 0.55118,
0.68898 -0.62992 0.00000,
0.68898 -0.62992 0.55118,
0.68898 0.62992 0.00000,
0.68898 0.62992 0.55118,
0.88583 -0.62992 0.00000,
0.88583 -0.62992 0.55118,
0.88583 0.62992 0.00000,
0.88583 0.62992 0.55118,
0.68898 -0.62992 0.00000,
0.88583 -0.62992 0.00000,
0.68898 -0.62992 0.55118,
0.88583 -0.62992 0.55118,
0.68898 0.62992 0.00000,
0.88583 0.62992 0.00000,
0.68898 0.62992 0.55118,
0.88583 0.62992 0.55118,
0.68898 -0.62992 0.00000,
0.68898 0.62992 0.00000,
0.88583 -0.62992 0.00000,
0.88583 0.62992 0.00000,
0.68898 -0.62992 0.55118,
0.68898 0.62992 0.55118,
0.88583 -0.62992 0.55118,
0.88583 0.62992 0.55118] }
 coordIndex [
1,2,0,-1,
1,3,2,-1,
5,4,6,-1,
5,6,7,-1,
11,8,9,-1,
11,10,8,-1,
15,13,12,-1,
15,12,14,-1,
19,16,17,-1,
19,18,16,-1,
23,21,20,-1,
23,20,22,-1,
25,26,24,-1,
25,27,26,-1,
29,28,30,-1,
29,30,31,-1,
35,32,33,-1,
35,34,32,-1,
39,37,36,-1,
39,36,38,-1,
43,40,41,-1,
43,42,40,-1,
47,45,44,-1,
47,44,46,-1] } }
