#VRML V2.0 utf8
Shape { appearance Appearance { material Material { diffuseColor 0.120 0.120 0.130 specularColor 0.3 0.3 0.3 shininess 0.4 } }
 geometry IndexedFaceSet { creaseAngle 0.5 coord Coordinate { point [
-0.98425 -0.96457 0.29528,
-0.98425 0.96457 0.29528,
-0.98425 -0.96457 0.00787,
-0.98425 0.96457 0.00787,
-0.98425 -0.96457 0.29528,
-0.98425 0.96457 0.29528,
-0.98416 -0.96650 0.29528,
-0.98387 -0.96841 0.29528,
-0.98340 -0.97028 0.29528,
-0.98275 -0.97210 0.29528,
-0.98193 -0.97385 0.29528,
-0.98093 -0.97550 0.29528,
-0.97978 -0.97705 0.29528,
-0.97849 -0.97849 0.29528,
-0.97705 -0.97978 0.29528,
-0.97550 -0.98093 0.29528,
-0.97385 -0.98193 0.29528,
-0.97210 -0.98275 0.29528,
-0.97028 -0.98340 0.29528,
-0.96841 -0.98387 0.29528,
-0.96650 -0.98416 0.29528,
-0.96457 -0.98425 0.29528,
0.96457 -0.98425 0.29528,
0.98425 -0.96457 0.29528,
0.98416 -0.96650 0.29528,
0.98387 -0.96841 0.29528,
0.98340 -0.97028 0.29528,
0.98275 -0.97210 0.29528,
0.98193 -0.97385 0.29528,
0.98093 -0.97550 0.29528,
0.97978 -0.97705 0.29528,
0.97849 -0.97849 0.29528,
0.97705 -0.97978 0.29528,
0.97550 -0.98093 0.29528,
0.97385 -0.98193 0.29528,
0.97210 -0.98275 0.29528,
0.97028 -0.98340 0.29528,
0.96841 -0.98387 0.29528,
0.96650 -0.98416 0.29528,
0.98425 0.96457 0.29528,
0.98416 0.96650 0.29528,
0.98387 0.96841 0.29528,
0.98340 0.97028 0.29528,
0.98275 0.97210 0.29528,
0.98193 0.97385 0.29528,
0.98093 0.97550 0.29528,
0.97978 0.97705 0.29528,
0.97849 0.97849 0.29528,
0.97705 0.97978 0.29528,
0.97550 0.98093 0.29528,
0.97385 0.98193 0.29528,
0.97210 0.98275 0.29528,
0.97028 0.98340 0.29528,
0.96841 0.98387 0.29528,
0.96650 0.98416 0.29528,
0.96457 0.98425 0.29528,
-0.96457 0.98425 0.29528,
-0.98416 0.96650 0.29528,
-0.98387 0.96841 0.29528,
-0.98340 0.97028 0.29528,
-0.98275 0.97210 0.29528,
-0.98193 0.97385 0.29528,
-0.98093 0.97550 0.29528,
-0.97978 0.97705 0.29528,
-0.97849 0.97849 0.29528,
-0.97705 0.97978 0.29528,
-0.97550 0.98093 0.29528,
-0.97385 0.98193 0.29528,
-0.97210 0.98275 0.29528,
-0.97028 0.98340 0.29528,
-0.96841 0.98387 0.29528,
-0.96650 0.98416 0.29528,
-0.98425 -0.96457 0.00787,
-0.98416 -0.96650 0.00787,
-0.98387 -0.96841 0.00787,
-0.98340 -0.97028 0.00787,
-0.98275 -0.97210 0.00787,
-0.98193 -0.97385 0.00787,
-0.98093 -0.97550 0.00787,
-0.97978 -0.97705 0.00787,
-0.97849 -0.97849 0.00787,
-0.97705 -0.97978 0.00787,
-0.97550 -0.98093 0.00787,
-0.97385 -0.98193 0.00787,
-0.97210 -0.98275 0.00787,
-0.97028 -0.98340 0.00787,
-0.96841 -0.98387 0.00787,
-0.96650 -0.98416 0.00787,
-0.96457 -0.98425 0.00787,
-0.96457 -0.98425 0.29528,
-0.98425 -0.96457 0.29528,
-0.98416 -0.96650 0.29528,
-0.98387 -0.96841 0.29528,
-0.98340 -0.97028 0.29528,
-0.98275 -0.97210 0.29528,
-0.98193 -0.97385 0.29528,
-0.98093 -0.97550 0.29528,
-0.97978 -0.97705 0.29528,
-0.97849 -0.97849 0.29528,
-0.97705 -0.97978 0.29528,
-0.97550 -0.98093 0.29528,
-0.97385 -0.98193 0.29528,
-0.97210 -0.98275 0.29528,
-0.97028 -0.98340 0.29528,
-0.96841 -0.98387 0.29528,
-0.96650 -0.98416 0.29528,
-0.98425 0.96457 0.00787,
-0.98416 0.96650 0.00787,
-0.98387 0.96841 0.00787,
-0.98340 0.97028 0.00787,
-0.98275 0.97210 0.00787,
-0.98193 0.97385 0.00787,
-0.98093 0.97550 0.00787,
-0.97978 0.97705 0.00787,
-0.97849 0.97849 0.00787,
-0.97705 0.97978 0.00787,
-0.97550 0.98093 0.00787,
-0.97385 0.98193 0.00787,
-0.97210 0.98275 0.00787,
-0.97028 0.98340 0.00787,
-0.96841 0.98387 0.00787,
-0.96650 0.98416 0.00787,
-0.96457 0.98425 0.00787,
-0.96457 0.98425 0.29528,
-0.98425 0.96457 0.29528,
-0.98416 0.96650 0.29528,
-0.98387 0.96841 0.29528,
-0.98340 0.97028 0.29528,
-0.98275 0.97210 0.29528,
-0.98193 0.97385 0.29528,
-0.98093 0.97550 0.29528,
-0.97978 0.97705 0.29528,
-0.97849 0.97849 0.29528,
-0.97705 0.97978 0.29528,
-0.97550 0.98093 0.29528,
-0.97385 0.98193 0.29528,
-0.97210 0.98275 0.29528,
-0.97028 0.98340 0.29528,
-0.96841 0.98387 0.29528,
-0.96650 0.98416 0.29528,
-0.98425 -0.96457 0.00787,
-0.98425 0.96457 0.00787,
-0.98416 -0.96650 0.00787,
-0.98387 -0.96841 0.00787,
-0.98340 -0.97028 0.00787,
-0.98275 -0.97210 0.00787,
-0.98193 -0.97385 0.00787,
-0.98093 -0.97550 0.00787,
-0.97978 -0.97705 0.00787,
-0.97849 -0.97849 0.00787,
-0.97705 -0.97978 0.00787,
-0.97550 -0.98093 0.00787,
-0.97385 -0.98193 0.00787,
-0.97210 -0.98275 0.00787,
-0.97028 -0.98340 0.00787,
-0.96841 -0.98387 0.00787,
-0.96650 -0.98416 0.00787,
-0.96457 -0.98425 0.00787,
0.96457 -0.98425 0.00787,
0.98425 -0.96457 0.00787,
0.98416 -0.96650 0.00787,
0.98387 -0.96841 0.00787,
0.98340 -0.97028 0.00787,
0.98275 -0.97210 0.00787,
0.98193 -0.97385 0.00787,
0.98093 -0.97550 0.00787,
0.97978 -0.97705 0.00787,
0.97849 -0.97849 0.00787,
0.97705 -0.97978 0.00787,
0.97550 -0.98093 0.00787,
0.97385 -0.98193 0.00787,
0.97210 -0.98275 0.00787,
0.97028 -0.98340 0.00787,
0.96841 -0.98387 0.00787,
0.96650 -0.98416 0.00787,
0.98425 0.96457 0.00787,
0.98416 0.96650 0.00787,
0.98387 0.96841 0.00787,
0.98340 0.97028 0.00787,
0.98275 0.97210 0.00787,
0.98193 0.97385 0.00787,
0.98093 0.97550 0.00787,
0.97978 0.97705 0.00787,
0.97849 0.97849 0.00787,
0.97705 0.97978 0.00787,
0.97550 0.98093 0.00787,
0.97385 0.98193 0.00787,
0.97210 0.98275 0.00787,
0.97028 0.98340 0.00787,
0.96841 0.98387 0.00787,
0.96650 0.98416 0.00787,
0.96457 0.98425 0.00787,
-0.96457 0.98425 0.00787,
-0.98416 0.96650 0.00787,
-0.98387 0.96841 0.00787,
-0.98340 0.97028 0.00787,
-0.98275 0.97210 0.00787,
-0.98193 0.97385 0.00787,
-0.98093 0.97550 0.00787,
-0.97978 0.97705 0.00787,
-0.97849 0.97849 0.00787,
-0.97705 0.97978 0.00787,
-0.97550 0.98093 0.00787,
-0.97385 0.98193 0.00787,
-0.97210 0.98275 0.00787,
-0.97028 0.98340 0.00787,
-0.96841 0.98387 0.00787,
-0.96650 0.98416 0.00787,
-0.96457 -0.98425 0.00787,
0.96457 -0.98425 0.00787,
-0.96457 -0.98425 0.29528,
0.96457 -0.98425 0.29528,
-0.96457 0.98425 0.00787,
0.96457 0.98425 0.00787,
-0.96457 0.98425 0.29528,
0.96457 0.98425 0.29528,
0.98425 -0.96457 0.00787,
0.98416 -0.96650 0.00787,
0.98387 -0.96841 0.00787,
0.98340 -0.97028 0.00787,
0.98275 -0.97210 0.00787,
0.98193 -0.97385 0.00787,
0.98093 -0.97550 0.00787,
0.97978 -0.97705 0.00787,
0.97849 -0.97849 0.00787,
0.97705 -0.97978 0.00787,
0.97550 -0.98093 0.00787,
0.97385 -0.98193 0.00787,
0.97210 -0.98275 0.00787,
0.97028 -0.98340 0.00787,
0.96841 -0.98387 0.00787,
0.96650 -0.98416 0.00787,
0.96457 -0.98425 0.00787,
0.96457 -0.98425 0.29528,
0.98425 -0.96457 0.29528,
0.98416 -0.96650 0.29528,
0.98387 -0.96841 0.29528,
0.98340 -0.97028 0.29528,
0.98275 -0.97210 0.29528,
0.98193 -0.97385 0.29528,
0.98093 -0.97550 0.29528,
0.97978 -0.97705 0.29528,
0.97849 -0.97849 0.29528,
0.97705 -0.97978 0.29528,
0.97550 -0.98093 0.29528,
0.97385 -0.98193 0.29528,
0.97210 -0.98275 0.29528,
0.97028 -0.98340 0.29528,
0.96841 -0.98387 0.29528,
0.96650 -0.98416 0.29528,
0.98425 0.96457 0.00787,
0.98416 0.96650 0.00787,
0.98387 0.96841 0.00787,
0.98340 0.97028 0.00787,
0.98275 0.97210 0.00787,
0.98193 0.97385 0.00787,
0.98093 0.97550 0.00787,
0.97978 0.97705 0.00787,
0.97849 0.97849 0.00787,
0.97705 0.97978 0.00787,
0.97550 0.98093 0.00787,
0.97385 0.98193 0.00787,
0.97210 0.98275 0.00787,
0.97028 0.98340 0.00787,
0.96841 0.98387 0.00787,
0.96650 0.98416 0.00787,
0.96457 0.98425 0.00787,
0.96457 0.98425 0.29528,
0.98425 0.96457 0.29528,
0.98416 0.96650 0.29528,
0.98387 0.96841 0.29528,
0.98340 0.97028 0.29528,
0.98275 0.97210 0.29528,
0.98193 0.97385 0.29528,
0.98093 0.97550 0.29528,
0.97978 0.97705 0.29528,
0.97849 0.97849 0.29528,
0.97705 0.97978 0.29528,
0.97550 0.98093 0.29528,
0.97385 0.98193 0.29528,
0.97210 0.98275 0.29528,
0.97028 0.98340 0.29528,
0.96841 0.98387 0.29528,
0.96650 0.98416 0.29528,
0.98425 -0.96457 0.29528,
0.98425 0.96457 0.29528,
0.98425 -0.96457 0.00787,
0.98425 0.96457 0.00787] }
 coordIndex [
0,3,2,-1,
0,1,3,-1,
21,4,6,-1,
21,6,7,-1,
21,7,8,-1,
21,8,9,-1,
21,9,10,-1,
21,10,11,-1,
21,11,12,-1,
21,12,13,-1,
21,13,14,-1,
21,14,15,-1,
21,15,16,-1,
21,16,17,-1,
21,17,18,-1,
21,18,19,-1,
21,19,20,-1,
37,22,38,-1,
60,59,58,-1,
61,60,58,-1,
34,22,37,-1,
34,36,35,-1,
34,37,36,-1,
62,61,58,-1,
62,58,57,-1,
63,62,57,-1,
63,57,5,-1,
31,22,34,-1,
31,33,32,-1,
31,34,33,-1,
29,31,30,-1,
66,63,5,-1,
66,64,63,-1,
66,65,64,-1,
67,66,5,-1,
28,22,31,-1,
28,31,29,-1,
27,22,28,-1,
69,68,67,-1,
25,27,26,-1,
25,22,27,-1,
71,67,5,-1,
71,69,67,-1,
71,70,69,-1,
24,22,25,-1,
23,21,22,-1,
23,22,24,-1,
56,5,4,-1,
56,71,5,-1,
56,4,21,-1,
55,23,39,-1,
55,21,23,-1,
55,56,21,-1,
54,39,40,-1,
54,55,39,-1,
51,52,53,-1,
43,40,41,-1,
43,41,42,-1,
50,53,54,-1,
50,51,53,-1,
45,43,44,-1,
45,40,43,-1,
49,50,54,-1,
48,45,46,-1,
48,54,40,-1,
48,40,45,-1,
48,49,54,-1,
47,48,46,-1,
91,72,73,-1,
91,90,72,-1,
92,73,74,-1,
92,91,73,-1,
93,74,75,-1,
93,92,74,-1,
94,75,76,-1,
94,93,75,-1,
95,76,77,-1,
95,94,76,-1,
96,77,78,-1,
96,95,77,-1,
97,78,79,-1,
97,96,78,-1,
98,79,80,-1,
98,97,79,-1,
99,80,81,-1,
99,98,80,-1,
100,81,82,-1,
100,99,81,-1,
101,82,83,-1,
101,100,82,-1,
102,83,84,-1,
102,101,83,-1,
103,84,85,-1,
103,102,84,-1,
104,85,86,-1,
104,86,87,-1,
104,103,85,-1,
105,104,87,-1,
89,87,88,-1,
89,105,87,-1,
125,107,106,-1,
125,106,124,-1,
126,108,107,-1,
126,107,125,-1,
127,109,108,-1,
127,108,126,-1,
128,110,109,-1,
128,109,127,-1,
129,111,110,-1,
129,110,128,-1,
130,112,111,-1,
130,111,129,-1,
131,113,112,-1,
131,112,130,-1,
132,114,113,-1,
132,113,131,-1,
133,115,114,-1,
133,114,132,-1,
134,116,115,-1,
134,115,133,-1,
135,117,116,-1,
135,116,134,-1,
136,118,117,-1,
136,117,135,-1,
137,119,118,-1,
137,118,136,-1,
138,120,119,-1,
138,119,137,-1,
139,121,120,-1,
139,120,138,-1,
123,122,121,-1,
123,121,139,-1,
157,142,140,-1,
157,143,142,-1,
157,144,143,-1,
157,145,144,-1,
157,146,145,-1,
157,147,146,-1,
157,148,147,-1,
157,149,148,-1,
157,150,149,-1,
157,151,150,-1,
157,152,151,-1,
157,153,152,-1,
157,154,153,-1,
157,155,154,-1,
157,156,155,-1,
173,174,158,-1,
196,194,195,-1,
197,194,196,-1,
170,173,158,-1,
170,171,172,-1,
170,172,173,-1,
198,194,197,-1,
198,193,194,-1,
199,193,198,-1,
199,141,193,-1,
167,170,158,-1,
167,168,169,-1,
167,169,170,-1,
165,166,167,-1,
202,141,199,-1,
202,199,200,-1,
202,200,201,-1,
203,141,202,-1,
164,167,158,-1,
164,165,167,-1,
163,164,158,-1,
205,203,204,-1,
161,162,163,-1,
161,163,158,-1,
207,141,203,-1,
207,203,205,-1,
207,205,206,-1,
160,161,158,-1,
159,158,157,-1,
159,160,158,-1,
192,140,141,-1,
192,141,207,-1,
192,157,140,-1,
191,175,159,-1,
191,159,157,-1,
191,157,192,-1,
190,176,175,-1,
190,175,191,-1,
187,189,188,-1,
179,177,176,-1,
179,178,177,-1,
186,190,189,-1,
186,189,187,-1,
181,180,179,-1,
181,179,176,-1,
185,190,186,-1,
184,182,181,-1,
184,176,190,-1,
184,181,176,-1,
184,190,185,-1,
183,182,184,-1,
211,208,209,-1,
211,210,208,-1,
215,213,212,-1,
215,212,214,-1,
235,217,216,-1,
235,216,234,-1,
236,218,217,-1,
236,217,235,-1,
237,219,218,-1,
237,218,236,-1,
238,220,219,-1,
238,219,237,-1,
239,221,220,-1,
239,220,238,-1,
240,222,221,-1,
240,221,239,-1,
241,223,222,-1,
241,222,240,-1,
242,224,223,-1,
242,223,241,-1,
243,225,224,-1,
243,224,242,-1,
244,226,225,-1,
244,225,243,-1,
245,227,226,-1,
245,226,244,-1,
246,228,227,-1,
246,227,245,-1,
247,229,228,-1,
247,228,246,-1,
248,230,229,-1,
248,231,230,-1,
248,229,247,-1,
249,231,248,-1,
233,232,231,-1,
233,231,249,-1,
269,250,251,-1,
269,268,250,-1,
270,251,252,-1,
270,269,251,-1,
271,252,253,-1,
271,270,252,-1,
272,253,254,-1,
272,271,253,-1,
273,254,255,-1,
273,272,254,-1,
274,255,256,-1,
274,273,255,-1,
275,256,257,-1,
275,274,256,-1,
276,257,258,-1,
276,275,257,-1,
277,258,259,-1,
277,276,258,-1,
278,259,260,-1,
278,277,259,-1,
279,260,261,-1,
279,278,260,-1,
280,261,262,-1,
280,279,261,-1,
281,262,263,-1,
281,280,262,-1,
282,263,264,-1,
282,281,263,-1,
283,264,265,-1,
283,282,264,-1,
267,265,266,-1,
267,283,265,-1,
284,286,287,-1,
284,287,285,-1] } }
Shape { appearance Appearance { material Material { diffuseColor 0.820 0.820 0.840 specularColor 0.3 0.3 0.3 shininess 0.4 } }
 geometry IndexedFaceSet { creaseAngle 0.5 coord Coordinate { point [
-0.79331 -0.98425 0.00000,
-0.79331 -0.98425 0.07874,
-0.79331 -0.82677 0.00000,
-0.79331 -0.82677 0.07874,
-0.72244 -0.98425 0.00000,
-0.72244 -0.98425 0.07874,
-0.72244 -0.82677 0.00000,
-0.72244 -0.82677 0.07874,
-0.79331 -0.98425 0.00000,
-0.72244 -0.98425 0.00000,
-0.79331 -0.98425 0.07874,
-0.72244 -0.98425 0.07874,
-0.79331 -0.82677 0.00000,
-0.72244 -0.82677 0.00000,
-0.79331 -0.82677 0.07874,
-0.72244 -0.82677 0.07874,
-0.79331 -0.98425 0.00000,
-0.79331 -0.82677 0.00000,
-0.72244 -0.98425 0.00000,
-0.72244 -0.82677 0.00000,
-0.79331 -0.98425 0.07874,
-0.79331 -0.82677 0.07874,
-0.72244 -0.98425 0.07874,
-0.72244 -0.82677 0.07874,
-0.79331 0.82677 0.00000,
-0.79331 0.82677 0.07874,
-0.79331 0.98425 0.00000,
-0.79331 0.98425 0.07874,
-0.72244 0.82677 0.00000,
-0.72244 0.82677 0.07874,
-0.72244 0.98425 0.00000,
-0.72244 0.98425 0.07874,
-0.79331 0.82677 0.00000,
-0.72244 0.82677 0.00000,
-0.79331 0.82677 0.07874,
-0.72244 0.82677 0.07874,
-0.79331 0.98425 0.00000,
-0.72244 0.98425 0.00000,
-0.79331 0.98425 0.07874,
-0.72244 0.98425 0.07874,
-0.79331 0.82677 0.00000,
-0.79331 0.98425 0.00000,
-0.72244 0.82677 0.00000,
-0.72244 0.98425 0.00000,
-0.79331 0.82677 0.07874,
-0.79331 0.98425 0.07874,
-0.72244 0.82677 0.07874,
-0.72244 0.98425 0.07874,
-0.98425 -0.79331 0.00000,
-0.98425 -0.79331 0.07874,
-0.98425 -0.72244 0.00000,
-0.98425 -0.72244 0.07874,
-0.82677 -0.79331 0.00000,
-0.82677 -0.79331 0.07874,
-0.82677 -0.72244 0.00000,
-0.82677 -0.72244 0.07874,
-0.98425 -0.79331 0.00000,
-0.82677 -0.79331 0.00000,
-0.98425 -0.79331 0.07874,
-0.82677 -0.79331 0.07874,
-0.98425 -0.72244 0.00000,
-0.82677 -0.72244 0.00000,
-0.98425 -0.72244 0.07874,
-0.82677 -0.72244 0.07874,
-0.98425 -0.79331 0.00000,
-0.98425 -0.72244 0.00000,
-0.82677 -0.79331 0.00000,
-0.82677 -0.72244 0.00000,
-0.98425 -0.79331 0.07874,
-0.98425 -0.72244 0.07874,
-0.82677 -0.79331 0.07874,
-0.82677 -0.72244 0.07874,
0.82677 -0.79331 0.00000,
0.82677 -0.79331 0.07874,
0.82677 -0.72244 0.00000,
0.82677 -0.72244 0.07874,
0.98425 -0.79331 0.00000,
0.98425 -0.79331 0.07874,
0.98425 -0.72244 0.00000,
0.98425 -0.72244 0.07874,
0.82677 -0.79331 0.00000,
0.98425 -0.79331 0.00000,
0.82677 -0.79331 0.07874,
0.98425 -0.79331 0.07874,
0.82677 -0.72244 0.00000,
0.98425 -0.72244 0.00000,
0.82677 -0.72244 0.07874,
0.98425 -0.72244 0.07874,
0.82677 -0.79331 0.00000,
0.82677 -0.72244 0.00000,
0.98425 -0.79331 0.00000,
0.98425 -0.72244 0.00000,
0.82677 -0.79331 0.07874,
0.82677 -0.72244 0.07874,
0.98425 -0.79331 0.07874,
0.98425 -0.72244 0.07874,
-0.65551 -0.98425 0.00000,
-0.65551 -0.98425 0.07874,
-0.65551 -0.82677 0.00000,
-0.65551 -0.82677 0.07874,
-0.58465 -0.98425 0.00000,
-0.58465 -0.98425 0.07874,
-0.58465 -0.82677 0.00000,
-0.58465 -0.82677 0.07874,
-0.65551 -0.98425 0.00000,
-0.58465 -0.98425 0.00000,
-0.65551 -0.98425 0.07874,
-0.58465 -0.98425 0.07874,
-0.65551 -0.82677 0.00000,
-0.58465 -0.82677 0.00000,
-0.65551 -0.82677 0.07874,
-0.58465 -0.82677 0.07874,
-0.65551 -0.98425 0.00000,
-0.65551 -0.82677 0.00000,
-0.58465 -0.98425 0.00000,
-0.58465 -0.82677 0.00000,
-0.65551 -0.98425 0.07874,
-0.65551 -0.82677 0.07874,
-0.58465 -0.98425 0.07874,
-0.58465 -0.82677 0.07874,
-0.65551 0.82677 0.00000,
-0.65551 0.82677 0.07874,
-0.65551 0.98425 0.00000,
-0.65551 0.98425 0.07874,
-0.58465 0.82677 0.00000,
-0.58465 0.82677 0.07874,
-0.58465 0.98425 0.00000,
-0.58465 0.98425 0.07874,
-0.65551 0.82677 0.00000,
-0.58465 0.82677 0.00000,
-0.65551 0.82677 0.07874,
-0.58465 0.82677 0.07874,
-0.65551 0.98425 0.00000,
-0.58465 0.98425 0.00000,
-0.65551 0.98425 0.07874,
-0.58465 0.98425 0.07874,
-0.65551 0.82677 0.00000,
-0.65551 0.98425 0.00000,
-0.58465 0.82677 0.00000,
-0.58465 0.98425 0.00000,
-0.65551 0.82677 0.07874,
-0.65551 0.98425 0.07874,
-0.58465 0.82677 0.07874,
-0.58465 0.98425 0.07874,
-0.98425 -0.65551 0.00000,
-0.98425 -0.65551 0.07874,
-0.98425 -0.58465 0.00000,
-0.98425 -0.58465 0.07874,
-0.82677 -0.65551 0.00000,
-0.82677 -0.65551 0.07874,
-0.82677 -0.58465 0.00000,
-0.82677 -0.58465 0.07874,
-0.98425 -0.65551 0.00000,
-0.82677 -0.65551 0.00000,
-0.98425 -0.65551 0.07874,
-0.82677 -0.65551 0.07874,
-0.98425 -0.58465 0.00000,
-0.82677 -0.58465 0.00000,
-0.98425 -0.58465 0.07874,
-0.82677 -0.58465 0.07874,
-0.98425 -0.65551 0.00000,
-0.98425 -0.58465 0.00000,
-0.82677 -0.65551 0.00000,
-0.82677 -0.58465 0.00000,
-0.98425 -0.65551 0.07874,
-0.98425 -0.58465 0.07874,
-0.82677 -0.65551 0.07874,
-0.82677 -0.58465 0.07874,
0.82677 -0.65551 0.00000,
0.82677 -0.65551 0.07874,
0.82677 -0.58465 0.00000,
0.82677 -0.58465 0.07874,
0.98425 -0.65551 0.00000,
0.98425 -0.65551 0.07874,
0.98425 -0.58465 0.00000,
0.98425 -0.58465 0.07874,
0.82677 -0.65551 0.00000,
0.98425 -0.65551 0.00000,
0.82677 -0.65551 0.07874,
0.98425 -0.65551 0.07874,
0.82677 -0.58465 0.00000,
0.98425 -0.58465 0.00000,
0.82677 -0.58465 0.07874,
0.98425 -0.58465 0.07874,
0.82677 -0.65551 0.00000,
0.82677 -0.58465 0.00000,
0.98425 -0.65551 0.00000,
0.98425 -0.58465 0.00000,
0.82677 -0.65551 0.07874,
0.82677 -0.58465 0.07874,
0.98425 -0.65551 0.07874,
0.98425 -0.58465 0.07874,
-0.51772 -0.98425 0.00000,
-0.51772 -0.98425 0.07874,
-0.51772 -0.82677 0.00000,
-0.51772 -0.82677 0.07874,
-0.44685 -0.98425 0.00000,
-0.44685 -0.98425 0.07874,
-0.44685 -0.82677 0.00000,
-0.44685 -0.82677 0.07874,
-0.51772 -0.98425 0.00000,
-0.44685 -0.98425 0.00000,
-0.51772 -0.98425 0.07874,
-0.44685 -0.98425 0.07874,
-0.51772 -0.82677 0.00000,
-0.44685 -0.82677 0.00000,
-0.51772 -0.82677 0.07874,
-0.44685 -0.82677 0.07874,
-0.51772 -0.98425 0.00000,
-0.51772 -0.82677 0.00000,
-0.44685 -0.98425 0.00000,
-0.44685 -0.82677 0.00000,
-0.51772 -0.98425 0.07874,
-0.51772 -0.82677 0.07874,
-0.44685 -0.98425 0.07874,
-0.44685 -0.82677 0.07874,
-0.51772 0.82677 0.00000,
-0.51772 0.82677 0.07874,
-0.51772 0.98425 0.00000,
-0.51772 0.98425 0.07874,
-0.44685 0.82677 0.00000,
-0.44685 0.82677 0.07874,
-0.44685 0.98425 0.00000,
-0.44685 0.98425 0.07874,
-0.51772 0.82677 0.00000,
-0.44685 0.82677 0.00000,
-0.51772 0.82677 0.07874,
-0.44685 0.82677 0.07874,
-0.51772 0.98425 0.00000,
-0.44685 0.98425 0.00000,
-0.51772 0.98425 0.07874,
-0.44685 0.98425 0.07874,
-0.51772 0.82677 0.00000,
-0.51772 0.98425 0.00000,
-0.44685 0.82677 0.00000,
-0.44685 0.98425 0.00000,
-0.51772 0.82677 0.07874,
-0.51772 0.98425 0.07874,
-0.44685 0.82677 0.07874,
-0.44685 0.98425 0.07874,
-0.98425 -0.51772 0.00000,
-0.98425 -0.51772 0.07874,
-0.98425 -0.44685 0.00000,
-0.98425 -0.44685 0.07874,
-0.82677 -0.51772 0.00000,
-0.82677 -0.51772 0.07874,
-0.82677 -0.44685 0.00000,
-0.82677 -0.44685 0.07874,
-0.98425 -0.51772 0.00000,
-0.82677 -0.51772 0.00000,
-0.98425 -0.51772 0.07874,
-0.82677 -0.51772 0.07874,
-0.98425 -0.44685 0.00000,
-0.82677 -0.44685 0.00000,
-0.98425 -0.44685 0.07874,
-0.82677 -0.44685 0.07874,
-0.98425 -0.51772 0.00000,
-0.98425 -0.44685 0.00000,
-0.82677 -0.51772 0.00000,
-0.82677 -0.44685 0.00000,
-0.98425 -0.51772 0.07874,
-0.98425 -0.44685 0.07874,
-0.82677 -0.51772 0.07874,
-0.82677 -0.44685 0.07874,
0.82677 -0.51772 0.00000,
0.82677 -0.51772 0.07874,
0.82677 -0.44685 0.00000,
0.82677 -0.44685 0.07874,
0.98425 -0.51772 0.00000,
0.98425 -0.51772 0.07874,
0.98425 -0.44685 0.00000,
0.98425 -0.44685 0.07874,
0.82677 -0.51772 0.00000,
0.98425 -0.51772 0.00000,
0.82677 -0.51772 0.07874,
0.98425 -0.51772 0.07874,
0.82677 -0.44685 0.00000,
0.98425 -0.44685 0.00000,
0.82677 -0.44685 0.07874,
0.98425 -0.44685 0.07874,
0.82677 -0.51772 0.00000,
0.82677 -0.44685 0.00000,
0.98425 -0.51772 0.00000,
0.98425 -0.44685 0.00000,
0.82677 -0.51772 0.07874,
0.82677 -0.44685 0.07874,
0.98425 -0.51772 0.07874,
0.98425 -0.44685 0.07874,
-0.37992 -0.98425 0.00000,
-0.37992 -0.98425 0.07874,
-0.37992 -0.82677 0.00000,
-0.37992 -0.82677 0.07874,
-0.30906 -0.98425 0.00000,
-0.30906 -0.98425 0.07874,
-0.30906 -0.82677 0.00000,
-0.30906 -0.82677 0.07874,
-0.37992 -0.98425 0.00000,
-0.30906 -0.98425 0.00000,
-0.37992 -0.98425 0.07874,
-0.30906 -0.98425 0.07874,
-0.37992 -0.82677 0.00000,
-0.30906 -0.82677 0.00000,
-0.37992 -0.82677 0.07874,
-0.30906 -0.82677 0.07874,
-0.37992 -0.98425 0.00000,
-0.37992 -0.82677 0.00000,
-0.30906 -0.98425 0.00000,
-0.30906 -0.82677 0.00000,
-0.37992 -0.98425 0.07874,
-0.37992 -0.82677 0.07874,
-0.30906 -0.98425 0.07874,
-0.30906 -0.82677 0.07874,
-0.37992 0.82677 0.00000,
-0.37992 0.82677 0.07874,
-0.37992 0.98425 0.00000,
-0.37992 0.98425 0.07874,
-0.30906 0.82677 0.00000,
-0.30906 0.82677 0.07874,
-0.30906 0.98425 0.00000,
-0.30906 0.98425 0.07874,
-0.37992 0.82677 0.00000,
-0.30906 0.82677 0.00000,
-0.37992 0.82677 0.07874,
-0.30906 0.82677 0.07874,
-0.37992 0.98425 0.00000,
-0.30906 0.98425 0.00000,
-0.37992 0.98425 0.07874,
-0.30906 0.98425 0.07874,
-0.37992 0.82677 0.00000,
-0.37992 0.98425 0.00000,
-0.30906 0.82677 0.00000,
-0.30906 0.98425 0.00000,
-0.37992 0.82677 0.07874,
-0.37992 0.98425 0.07874,
-0.30906 0.82677 0.07874,
-0.30906 0.98425 0.07874,
-0.98425 -0.37992 0.00000,
-0.98425 -0.37992 0.07874,
-0.98425 -0.30906 0.00000,
-0.98425 -0.30906 0.07874,
-0.82677 -0.37992 0.00000,
-0.82677 -0.37992 0.07874,
-0.82677 -0.30906 0.00000,
-0.82677 -0.30906 0.07874,
-0.98425 -0.37992 0.00000,
-0.82677 -0.37992 0.00000,
-0.98425 -0.37992 0.07874,
-0.82677 -0.37992 0.07874,
-0.98425 -0.30906 0.00000,
-0.82677 -0.30906 0.00000,
-0.98425 -0.30906 0.07874,
-0.82677 -0.30906 0.07874,
-0.98425 -0.37992 0.00000,
-0.98425 -0.30906 0.00000,
-0.82677 -0.37992 0.00000,
-0.82677 -0.30906 0.00000,
-0.98425 -0.37992 0.07874,
-0.98425 -0.30906 0.07874,
-0.82677 -0.37992 0.07874,
-0.82677 -0.30906 0.07874,
0.82677 -0.37992 0.00000,
0.82677 -0.37992 0.07874,
0.82677 -0.30906 0.00000,
0.82677 -0.30906 0.07874,
0.98425 -0.37992 0.00000,
0.98425 -0.37992 0.07874,
0.98425 -0.30906 0.00000,
0.98425 -0.30906 0.07874,
0.82677 -0.37992 0.00000,
0.98425 -0.37992 0.00000,
0.82677 -0.37992 0.07874,
0.98425 -0.37992 0.07874,
0.82677 -0.30906 0.00000,
0.98425 -0.30906 0.00000,
0.82677 -0.30906 0.07874,
0.98425 -0.30906 0.07874,
0.82677 -0.37992 0.00000,
0.82677 -0.30906 0.00000,
0.98425 -0.37992 0.00000,
0.98425 -0.30906 0.00000,
0.82677 -0.37992 0.07874,
0.82677 -0.30906 0.07874,
0.98425 -0.37992 0.07874,
0.98425 -0.30906 0.07874,
-0.24213 -0.98425 0.00000,
-0.24213 -0.98425 0.07874,
-0.24213 -0.82677 0.00000,
-0.24213 -0.82677 0.07874,
-0.17126 -0.98425 0.00000,
-0.17126 -0.98425 0.07874,
-0.17126 -0.82677 0.00000,
-0.17126 -0.82677 0.07874,
-0.24213 -0.98425 0.00000,
-0.17126 -0.98425 0.00000,
-0.24213 -0.98425 0.07874,
-0.17126 -0.98425 0.07874,
-0.24213 -0.82677 0.00000,
-0.17126 -0.82677 0.00000,
-0.24213 -0.82677 0.07874,
-0.17126 -0.82677 0.07874,
-0.24213 -0.98425 0.00000,
-0.24213 -0.82677 0.00000,
-0.17126 -0.98425 0.00000,
-0.17126 -0.82677 0.00000,
-0.24213 -0.98425 0.07874,
-0.24213 -0.82677 0.07874,
-0.17126 -0.98425 0.07874,
-0.17126 -0.82677 0.07874,
-0.24213 0.82677 0.00000,
-0.24213 0.82677 0.07874,
-0.24213 0.98425 0.00000,
-0.24213 0.98425 0.07874,
-0.17126 0.82677 0.00000,
-0.17126 0.82677 0.07874,
-0.17126 0.98425 0.00000,
-0.17126 0.98425 0.07874,
-0.24213 0.82677 0.00000,
-0.17126 0.82677 0.00000,
-0.24213 0.82677 0.07874,
-0.17126 0.82677 0.07874,
-0.24213 0.98425 0.00000,
-0.17126 0.98425 0.00000,
-0.24213 0.98425 0.07874,
-0.17126 0.98425 0.07874,
-0.24213 0.82677 0.00000,
-0.24213 0.98425 0.00000,
-0.17126 0.82677 0.00000,
-0.17126 0.98425 0.00000,
-0.24213 0.82677 0.07874,
-0.24213 0.98425 0.07874,
-0.17126 0.82677 0.07874,
-0.17126 0.98425 0.07874,
-0.98425 -0.24213 0.00000,
-0.98425 -0.24213 0.07874,
-0.98425 -0.17126 0.00000,
-0.98425 -0.17126 0.07874,
-0.82677 -0.24213 0.00000,
-0.82677 -0.24213 0.07874,
-0.82677 -0.17126 0.00000,
-0.82677 -0.17126 0.07874,
-0.98425 -0.24213 0.00000,
-0.82677 -0.24213 0.00000,
-0.98425 -0.24213 0.07874,
-0.82677 -0.24213 0.07874,
-0.98425 -0.17126 0.00000,
-0.82677 -0.17126 0.00000,
-0.98425 -0.17126 0.07874,
-0.82677 -0.17126 0.07874,
-0.98425 -0.24213 0.00000,
-0.98425 -0.17126 0.00000,
-0.82677 -0.24213 0.00000,
-0.82677 -0.17126 0.00000,
-0.98425 -0.24213 0.07874,
-0.98425 -0.17126 0.07874,
-0.82677 -0.24213 0.07874,
-0.82677 -0.17126 0.07874,
0.82677 -0.24213 0.00000,
0.82677 -0.24213 0.07874,
0.82677 -0.17126 0.00000,
0.82677 -0.17126 0.07874,
0.98425 -0.24213 0.00000,
0.98425 -0.24213 0.07874,
0.98425 -0.17126 0.00000,
0.98425 -0.17126 0.07874,
0.82677 -0.24213 0.00000,
0.98425 -0.24213 0.00000,
0.82677 -0.24213 0.07874,
0.98425 -0.24213 0.07874,
0.82677 -0.17126 0.00000,
0.98425 -0.17126 0.00000,
0.82677 -0.17126 0.07874,
0.98425 -0.17126 0.07874,
0.82677 -0.24213 0.00000,
0.82677 -0.17126 0.00000,
0.98425 -0.24213 0.00000,
0.98425 -0.17126 0.00000,
0.82677 -0.24213 0.07874,
0.82677 -0.17126 0.07874,
0.98425 -0.24213 0.07874,
0.98425 -0.17126 0.07874,
-0.10433 -0.98425 0.00000,
-0.10433 -0.98425 0.07874,
-0.10433 -0.82677 0.00000,
-0.10433 -0.82677 0.07874,
-0.03346 -0.98425 0.00000,
-0.03346 -0.98425 0.07874,
-0.03346 -0.82677 0.00000,
-0.03346 -0.82677 0.07874,
-0.10433 -0.98425 0.00000,
-0.03346 -0.98425 0.00000,
-0.10433 -0.98425 0.07874,
-0.03346 -0.98425 0.07874,
-0.10433 -0.82677 0.00000,
-0.03346 -0.82677 0.00000,
-0.10433 -0.82677 0.07874,
-0.03346 -0.82677 0.07874,
-0.10433 -0.98425 0.00000,
-0.10433 -0.82677 0.00000,
-0.03346 -0.98425 0.00000,
-0.03346 -0.82677 0.00000,
-0.10433 -0.98425 0.07874,
-0.10433 -0.82677 0.07874,
-0.03346 -0.98425 0.07874,
-0.03346 -0.82677 0.07874,
-0.10433 0.82677 0.00000,
-0.10433 0.82677 0.07874,
-0.10433 0.98425 0.00000,
-0.10433 0.98425 0.07874,
-0.03346 0.82677 0.00000,
-0.03346 0.82677 0.07874,
-0.03346 0.98425 0.00000,
-0.03346 0.98425 0.07874,
-0.10433 0.82677 0.00000,
-0.03346 0.82677 0.00000,
-0.10433 0.82677 0.07874,
-0.03346 0.82677 0.07874,
-0.10433 0.98425 0.00000,
-0.03346 0.98425 0.00000,
-0.10433 0.98425 0.07874,
-0.03346 0.98425 0.07874,
-0.10433 0.82677 0.00000,
-0.10433 0.98425 0.00000,
-0.03346 0.82677 0.00000,
-0.03346 0.98425 0.00000,
-0.10433 0.82677 0.07874,
-0.10433 0.98425 0.07874,
-0.03346 0.82677 0.07874,
-0.03346 0.98425 0.07874,
-0.98425 -0.10433 0.00000,
-0.98425 -0.10433 0.07874,
-0.98425 -0.03346 0.00000,
-0.98425 -0.03346 0.07874,
-0.82677 -0.10433 0.00000,
-0.82677 -0.10433 0.07874,
-0.82677 -0.03346 0.00000,
-0.82677 -0.03346 0.07874,
-0.98425 -0.10433 0.00000,
-0.82677 -0.10433 0.00000,
-0.98425 -0.10433 0.07874,
-0.82677 -0.10433 0.07874,
-0.98425 -0.03346 0.00000,
-0.82677 -0.03346 0.00000,
-0.98425 -0.03346 0.07874,
-0.82677 -0.03346 0.07874,
-0.98425 -0.10433 0.00000,
-0.98425 -0.03346 0.00000,
-0.82677 -0.10433 0.00000,
-0.82677 -0.03346 0.00000,
-0.98425 -0.10433 0.07874,
-0.98425 -0.03346 0.07874,
-0.82677 -0.10433 0.07874,
-0.82677 -0.03346 0.07874,
0.82677 -0.10433 0.00000,
0.82677 -0.10433 0.07874,
0.82677 -0.03346 0.00000,
0.82677 -0.03346 0.07874,
0.98425 -0.10433 0.00000,
0.98425 -0.10433 0.07874,
0.98425 -0.03346 0.00000,
0.98425 -0.03346 0.07874,
0.82677 -0.10433 0.00000,
0.98425 -0.10433 0.00000,
0.82677 -0.10433 0.07874,
0.98425 -0.10433 0.07874,
0.82677 -0.03346 0.00000,
0.98425 -0.03346 0.00000,
0.82677 -0.03346 0.07874,
0.98425 -0.03346 0.07874,
0.82677 -0.10433 0.00000,
0.82677 -0.03346 0.00000,
0.98425 -0.10433 0.00000,
0.98425 -0.03346 0.00000,
0.82677 -0.10433 0.07874,
0.82677 -0.03346 0.07874,
0.98425 -0.10433 0.07874,
0.98425 -0.03346 0.07874,
0.03346 -0.98425 0.00000,
0.03346 -0.98425 0.07874,
0.03346 -0.82677 0.00000,
0.03346 -0.82677 0.07874,
0.10433 -0.98425 0.00000,
0.10433 -0.98425 0.07874,
0.10433 -0.82677 0.00000,
0.10433 -0.82677 0.07874,
0.03346 -0.98425 0.00000,
0.10433 -0.98425 0.00000,
0.03346 -0.98425 0.07874,
0.10433 -0.98425 0.07874,
0.03346 -0.82677 0.00000,
0.10433 -0.82677 0.00000,
0.03346 -0.82677 0.07874,
0.10433 -0.82677 0.07874,
0.03346 -0.98425 0.00000,
0.03346 -0.82677 0.00000,
0.10433 -0.98425 0.00000,
0.10433 -0.82677 0.00000,
0.03346 -0.98425 0.07874,
0.03346 -0.82677 0.07874,
0.10433 -0.98425 0.07874,
0.10433 -0.82677 0.07874,
0.03346 0.82677 0.00000,
0.03346 0.82677 0.07874,
0.03346 0.98425 0.00000,
0.03346 0.98425 0.07874,
0.10433 0.82677 0.00000,
0.10433 0.82677 0.07874,
0.10433 0.98425 0.00000,
0.10433 0.98425 0.07874,
0.03346 0.82677 0.00000,
0.10433 0.82677 0.00000,
0.03346 0.82677 0.07874,
0.10433 0.82677 0.07874,
0.03346 0.98425 0.00000,
0.10433 0.98425 0.00000,
0.03346 0.98425 0.07874,
0.10433 0.98425 0.07874,
0.03346 0.82677 0.00000,
0.03346 0.98425 0.00000,
0.10433 0.82677 0.00000,
0.10433 0.98425 0.00000,
0.03346 0.82677 0.07874,
0.03346 0.98425 0.07874,
0.10433 0.82677 0.07874,
0.10433 0.98425 0.07874,
-0.98425 0.03346 0.00000,
-0.98425 0.03346 0.07874,
-0.98425 0.10433 0.00000,
-0.98425 0.10433 0.07874,
-0.82677 0.03346 0.00000,
-0.82677 0.03346 0.07874,
-0.82677 0.10433 0.00000,
-0.82677 0.10433 0.07874,
-0.98425 0.03346 0.00000,
-0.82677 0.03346 0.00000,
-0.98425 0.03346 0.07874,
-0.82677 0.03346 0.07874,
-0.98425 0.10433 0.00000,
-0.82677 0.10433 0.00000,
-0.98425 0.10433 0.07874,
-0.82677 0.10433 0.07874,
-0.98425 0.03346 0.00000,
-0.98425 0.10433 0.00000,
-0.82677 0.03346 0.00000,
-0.82677 0.10433 0.00000,
-0.98425 0.03346 0.07874,
-0.98425 0.10433 0.07874,
-0.82677 0.03346 0.07874,
-0.82677 0.10433 0.07874,
0.82677 0.03346 0.00000,
0.82677 0.03346 0.07874,
0.82677 0.10433 0.00000,
0.82677 0.10433 0.07874,
0.98425 0.03346 0.00000,
0.98425 0.03346 0.07874,
0.98425 0.10433 0.00000,
0.98425 0.10433 0.07874,
0.82677 0.03346 0.00000,
0.98425 0.03346 0.00000,
0.82677 0.03346 0.07874,
0.98425 0.03346 0.07874,
0.82677 0.10433 0.00000,
0.98425 0.10433 0.00000,
0.82677 0.10433 0.07874,
0.98425 0.10433 0.07874,
0.82677 0.03346 0.00000,
0.82677 0.10433 0.00000,
0.98425 0.03346 0.00000,
0.98425 0.10433 0.00000,
0.82677 0.03346 0.07874,
0.82677 0.10433 0.07874,
0.98425 0.03346 0.07874,
0.98425 0.10433 0.07874,
0.17126 -0.98425 0.00000,
0.17126 -0.98425 0.07874,
0.17126 -0.82677 0.00000,
0.17126 -0.82677 0.07874,
0.24213 -0.98425 0.00000,
0.24213 -0.98425 0.07874,
0.24213 -0.82677 0.00000,
0.24213 -0.82677 0.07874,
0.17126 -0.98425 0.00000,
0.24213 -0.98425 0.00000,
0.17126 -0.98425 0.07874,
0.24213 -0.98425 0.07874,
0.17126 -0.82677 0.00000,
0.24213 -0.82677 0.00000,
0.17126 -0.82677 0.07874,
0.24213 -0.82677 0.07874,
0.17126 -0.98425 0.00000,
0.17126 -0.82677 0.00000,
0.24213 -0.98425 0.00000,
0.24213 -0.82677 0.00000,
0.17126 -0.98425 0.07874,
0.17126 -0.82677 0.07874,
0.24213 -0.98425 0.07874,
0.24213 -0.82677 0.07874,
0.17126 0.82677 0.00000,
0.17126 0.82677 0.07874,
0.17126 0.98425 0.00000,
0.17126 0.98425 0.07874,
0.24213 0.82677 0.00000,
0.24213 0.82677 0.07874,
0.24213 0.98425 0.00000,
0.24213 0.98425 0.07874,
0.17126 0.82677 0.00000,
0.24213 0.82677 0.00000,
0.17126 0.82677 0.07874,
0.24213 0.82677 0.07874,
0.17126 0.98425 0.00000,
0.24213 0.98425 0.00000,
0.17126 0.98425 0.07874,
0.24213 0.98425 0.07874,
0.17126 0.82677 0.00000,
0.17126 0.98425 0.00000,
0.24213 0.82677 0.00000,
0.24213 0.98425 0.00000,
0.17126 0.82677 0.07874,
0.17126 0.98425 0.07874,
0.24213 0.82677 0.07874,
0.24213 0.98425 0.07874,
-0.98425 0.17126 0.00000,
-0.98425 0.17126 0.07874,
-0.98425 0.24213 0.00000,
-0.98425 0.24213 0.07874,
-0.82677 0.17126 0.00000,
-0.82677 0.17126 0.07874,
-0.82677 0.24213 0.00000,
-0.82677 0.24213 0.07874,
-0.98425 0.17126 0.00000,
-0.82677 0.17126 0.00000,
-0.98425 0.17126 0.07874,
-0.82677 0.17126 0.07874,
-0.98425 0.24213 0.00000,
-0.82677 0.24213 0.00000,
-0.98425 0.24213 0.07874,
-0.82677 0.24213 0.07874,
-0.98425 0.17126 0.00000,
-0.98425 0.24213 0.00000,
-0.82677 0.17126 0.00000,
-0.82677 0.24213 0.00000,
-0.98425 0.17126 0.07874,
-0.98425 0.24213 0.07874,
-0.82677 0.17126 0.07874,
-0.82677 0.24213 0.07874,
0.82677 0.17126 0.00000,
0.82677 0.17126 0.07874,
0.82677 0.24213 0.00000,
0.82677 0.24213 0.07874,
0.98425 0.17126 0.00000,
0.98425 0.17126 0.07874,
0.98425 0.24213 0.00000,
0.98425 0.24213 0.07874,
0.82677 0.17126 0.00000,
0.98425 0.17126 0.00000,
0.82677 0.17126 0.07874,
0.98425 0.17126 0.07874,
0.82677 0.24213 0.00000,
0.98425 0.24213 0.00000,
0.82677 0.24213 0.07874,
0.98425 0.24213 0.07874,
0.82677 0.17126 0.00000,
0.82677 0.24213 0.00000,
0.98425 0.17126 0.00000,
0.98425 0.24213 0.00000,
0.82677 0.17126 0.07874,
0.82677 0.24213 0.07874,
0.98425 0.17126 0.07874,
0.98425 0.24213 0.07874,
0.30906 -0.98425 0.00000,
0.30906 -0.98425 0.07874,
0.30906 -0.82677 0.00000,
0.30906 -0.82677 0.07874,
0.37992 -0.98425 0.00000,
0.37992 -0.98425 0.07874,
0.37992 -0.82677 0.00000,
0.37992 -0.82677 0.07874,
0.30906 -0.98425 0.00000,
0.37992 -0.98425 0.00000,
0.30906 -0.98425 0.07874,
0.37992 -0.98425 0.07874,
0.30906 -0.82677 0.00000,
0.37992 -0.82677 0.00000,
0.30906 -0.82677 0.07874,
0.37992 -0.82677 0.07874,
0.30906 -0.98425 0.00000,
0.30906 -0.82677 0.00000,
0.37992 -0.98425 0.00000,
0.37992 -0.82677 0.00000,
0.30906 -0.98425 0.07874,
0.30906 -0.82677 0.07874,
0.37992 -0.98425 0.07874,
0.37992 -0.82677 0.07874,
0.30906 0.82677 0.00000,
0.30906 0.82677 0.07874,
0.30906 0.98425 0.00000,
0.30906 0.98425 0.07874,
0.37992 0.82677 0.00000,
0.37992 0.82677 0.07874,
0.37992 0.98425 0.00000,
0.37992 0.98425 0.07874,
0.30906 0.82677 0.00000,
0.37992 0.82677 0.00000,
0.30906 0.82677 0.07874,
0.37992 0.82677 0.07874,
0.30906 0.98425 0.00000,
0.37992 0.98425 0.00000,
0.30906 0.98425 0.07874,
0.37992 0.98425 0.07874,
0.30906 0.82677 0.00000,
0.30906 0.98425 0.00000,
0.37992 0.82677 0.00000,
0.37992 0.98425 0.00000,
0.30906 0.82677 0.07874,
0.30906 0.98425 0.07874,
0.37992 0.82677 0.07874,
0.37992 0.98425 0.07874,
-0.98425 0.30906 0.00000,
-0.98425 0.30906 0.07874,
-0.98425 0.37992 0.00000,
-0.98425 0.37992 0.07874,
-0.82677 0.30906 0.00000,
-0.82677 0.30906 0.07874,
-0.82677 0.37992 0.00000,
-0.82677 0.37992 0.07874,
-0.98425 0.30906 0.00000,
-0.82677 0.30906 0.00000,
-0.98425 0.30906 0.07874,
-0.82677 0.30906 0.07874,
-0.98425 0.37992 0.00000,
-0.82677 0.37992 0.00000,
-0.98425 0.37992 0.07874,
-0.82677 0.37992 0.07874,
-0.98425 0.30906 0.00000,
-0.98425 0.37992 0.00000,
-0.82677 0.30906 0.00000,
-0.82677 0.37992 0.00000,
-0.98425 0.30906 0.07874,
-0.98425 0.37992 0.07874,
-0.82677 0.30906 0.07874,
-0.82677 0.37992 0.07874,
0.82677 0.30906 0.00000,
0.82677 0.30906 0.07874,
0.82677 0.37992 0.00000,
0.82677 0.37992 0.07874,
0.98425 0.30906 0.00000,
0.98425 0.30906 0.07874,
0.98425 0.37992 0.00000,
0.98425 0.37992 0.07874,
0.82677 0.30906 0.00000,
0.98425 0.30906 0.00000,
0.82677 0.30906 0.07874,
0.98425 0.30906 0.07874,
0.82677 0.37992 0.00000,
0.98425 0.37992 0.00000,
0.82677 0.37992 0.07874,
0.98425 0.37992 0.07874,
0.82677 0.30906 0.00000,
0.82677 0.37992 0.00000,
0.98425 0.30906 0.00000,
0.98425 0.37992 0.00000,
0.82677 0.30906 0.07874,
0.82677 0.37992 0.07874,
0.98425 0.30906 0.07874,
0.98425 0.37992 0.07874,
0.44685 -0.98425 0.00000,
0.44685 -0.98425 0.07874,
0.44685 -0.82677 0.00000,
0.44685 -0.82677 0.07874,
0.51772 -0.98425 0.00000,
0.51772 -0.98425 0.07874,
0.51772 -0.82677 0.00000,
0.51772 -0.82677 0.07874,
0.44685 -0.98425 0.00000,
0.51772 -0.98425 0.00000,
0.44685 -0.98425 0.07874,
0.51772 -0.98425 0.07874,
0.44685 -0.82677 0.00000,
0.51772 -0.82677 0.00000,
0.44685 -0.82677 0.07874,
0.51772 -0.82677 0.07874,
0.44685 -0.98425 0.00000,
0.44685 -0.82677 0.00000,
0.51772 -0.98425 0.00000,
0.51772 -0.82677 0.00000,
0.44685 -0.98425 0.07874,
0.44685 -0.82677 0.07874,
0.51772 -0.98425 0.07874,
0.51772 -0.82677 0.07874,
0.44685 0.82677 0.00000,
0.44685 0.82677 0.07874,
0.44685 0.98425 0.00000,
0.44685 0.98425 0.07874,
0.51772 0.82677 0.00000,
0.51772 0.82677 0.07874,
0.51772 0.98425 0.00000,
0.51772 0.98425 0.07874,
0.44685 0.82677 0.00000,
0.51772 0.82677 0.00000,
0.44685 0.82677 0.07874,
0.51772 0.82677 0.07874,
0.44685 0.98425 0.00000,
0.51772 0.98425 0.00000,
0.44685 0.98425 0.07874,
0.51772 0.98425 0.07874,
0.44685 0.82677 0.00000,
0.44685 0.98425 0.00000,
0.51772 0.82677 0.00000,
0.51772 0.98425 0.00000,
0.44685 0.82677 0.07874,
0.44685 0.98425 0.07874,
0.51772 0.82677 0.07874,
0.51772 0.98425 0.07874,
-0.98425 0.44685 0.00000,
-0.98425 0.44685 0.07874,
-0.98425 0.51772 0.00000,
-0.98425 0.51772 0.07874,
-0.82677 0.44685 0.00000,
-0.82677 0.44685 0.07874,
-0.82677 0.51772 0.00000,
-0.82677 0.51772 0.07874,
-0.98425 0.44685 0.00000,
-0.82677 0.44685 0.00000,
-0.98425 0.44685 0.07874,
-0.82677 0.44685 0.07874,
-0.98425 0.51772 0.00000,
-0.82677 0.51772 0.00000,
-0.98425 0.51772 0.07874,
-0.82677 0.51772 0.07874,
-0.98425 0.44685 0.00000,
-0.98425 0.51772 0.00000,
-0.82677 0.44685 0.00000,
-0.82677 0.51772 0.00000,
-0.98425 0.44685 0.07874,
-0.98425 0.51772 0.07874,
-0.82677 0.44685 0.07874,
-0.82677 0.51772 0.07874,
0.82677 0.44685 0.00000,
0.82677 0.44685 0.07874,
0.82677 0.51772 0.00000,
0.82677 0.51772 0.07874,
0.98425 0.44685 0.00000,
0.98425 0.44685 0.07874,
0.98425 0.51772 0.00000,
0.98425 0.51772 0.07874,
0.82677 0.44685 0.00000,
0.98425 0.44685 0.00000,
0.82677 0.44685 0.07874,
0.98425 0.44685 0.07874,
0.82677 0.51772 0.00000,
0.98425 0.51772 0.00000,
0.82677 0.51772 0.07874,
0.98425 0.51772 0.07874,
0.82677 0.44685 0.00000,
0.82677 0.51772 0.00000,
0.98425 0.44685 0.00000,
0.98425 0.51772 0.00000,
0.82677 0.44685 0.07874,
0.82677 0.51772 0.07874,
0.98425 0.44685 0.07874,
0.98425 0.51772 0.07874,
0.58465 -0.98425 0.00000,
0.58465 -0.98425 0.07874,
0.58465 -0.82677 0.00000,
0.58465 -0.82677 0.07874,
0.65551 -0.98425 0.00000,
0.65551 -0.98425 0.07874,
0.65551 -0.82677 0.00000,
0.65551 -0.82677 0.07874,
0.58465 -0.98425 0.00000,
0.65551 -0.98425 0.00000,
0.58465 -0.98425 0.07874,
0.65551 -0.98425 0.07874,
0.58465 -0.82677 0.00000,
0.65551 -0.82677 0.00000,
0.58465 -0.82677 0.07874,
0.65551 -0.82677 0.07874,
0.58465 -0.98425 0.00000,
0.58465 -0.82677 0.00000,
0.65551 -0.98425 0.00000,
0.65551 -0.82677 0.00000,
0.58465 -0.98425 0.07874,
0.58465 -0.82677 0.07874,
0.65551 -0.98425 0.07874,
0.65551 -0.82677 0.07874,
0.58465 0.82677 0.00000,
0.58465 0.82677 0.07874,
0.58465 0.98425 0.00000,
0.58465 0.98425 0.07874,
0.65551 0.82677 0.00000,
0.65551 0.82677 0.07874,
0.65551 0.98425 0.00000,
0.65551 0.98425 0.07874,
0.58465 0.82677 0.00000,
0.65551 0.82677 0.00000,
0.58465 0.82677 0.07874,
0.65551 0.82677 0.07874,
0.58465 0.98425 0.00000,
0.65551 0.98425 0.00000,
0.58465 0.98425 0.07874,
0.65551 0.98425 0.07874,
0.58465 0.82677 0.00000,
0.58465 0.98425 0.00000,
0.65551 0.82677 0.00000,
0.65551 0.98425 0.00000,
0.58465 0.82677 0.07874,
0.58465 0.98425 0.07874,
0.65551 0.82677 0.07874,
0.65551 0.98425 0.07874,
-0.98425 0.58465 0.00000,
-0.98425 0.58465 0.07874,
-0.98425 0.65551 0.00000,
-0.98425 0.65551 0.07874,
-0.82677 0.58465 0.00000,
-0.82677 0.58465 0.07874,
-0.82677 0.65551 0.00000,
-0.82677 0.65551 0.07874,
-0.98425 0.58465 0.00000,
-0.82677 0.58465 0.00000,
-0.98425 0.58465 0.07874,
-0.82677 0.58465 0.07874,
-0.98425 0.65551 0.00000,
-0.82677 0.65551 0.00000,
-0.98425 0.65551 0.07874,
-0.82677 0.65551 0.07874,
-0.98425 0.58465 0.00000,
-0.98425 0.65551 0.00000,
-0.82677 0.58465 0.00000,
-0.82677 0.65551 0.00000,
-0.98425 0.58465 0.07874,
-0.98425 0.65551 0.07874,
-0.82677 0.58465 0.07874,
-0.82677 0.65551 0.07874,
0.82677 0.58465 0.00000,
0.82677 0.58465 0.07874,
0.82677 0.65551 0.00000,
0.82677 0.65551 0.07874,
0.98425 0.58465 0.00000,
0.98425 0.58465 0.07874,
0.98425 0.65551 0.00000,
0.98425 0.65551 0.07874,
0.82677 0.58465 0.00000,
0.98425 0.58465 0.00000,
0.82677 0.58465 0.07874,
0.98425 0.58465 0.07874,
0.82677 0.65551 0.00000,
0.98425 0.65551 0.00000,
0.82677 0.65551 0.07874,
0.98425 0.65551 0.07874,
0.82677 0.58465 0.00000,
0.82677 0.65551 0.00000,
0.98425 0.58465 0.00000,
0.98425 0.65551 0.00000,
0.82677 0.58465 0.07874,
0.82677 0.65551 0.07874,
0.98425 0.58465 0.07874,
0.98425 0.65551 0.07874,
0.72244 -0.98425 0.00000,
0.72244 -0.98425 0.07874,
0.72244 -0.82677 0.00000,
0.72244 -0.82677 0.07874,
0.79331 -0.98425 0.00000,
0.79331 -0.98425 0.07874,
0.79331 -0.82677 0.00000,
0.79331 -0.82677 0.07874,
0.72244 -0.98425 0.00000,
0.79331 -0.98425 0.00000,
0.72244 -0.98425 0.07874,
0.79331 -0.98425 0.07874,
0.72244 -0.82677 0.00000,
0.79331 -0.82677 0.00000,
0.72244 -0.82677 0.07874,
0.79331 -0.82677 0.07874,
0.72244 -0.98425 0.00000,
0.72244 -0.82677 0.00000,
0.79331 -0.98425 0.00000,
0.79331 -0.82677 0.00000,
0.72244 -0.98425 0.07874,
0.72244 -0.82677 0.07874,
0.79331 -0.98425 0.07874,
0.79331 -0.82677 0.07874,
0.72244 0.82677 0.00000,
0.72244 0.82677 0.07874,
0.72244 0.98425 0.00000,
0.72244 0.98425 0.07874,
0.79331 0.82677 0.00000,
0.79331 0.82677 0.07874,
0.79331 0.98425 0.00000,
0.79331 0.98425 0.07874,
0.72244 0.82677 0.00000,
0.79331 0.82677 0.00000,
0.72244 0.82677 0.07874,
0.79331 0.82677 0.07874,
0.72244 0.98425 0.00000,
0.79331 0.98425 0.00000,
0.72244 0.98425 0.07874,
0.79331 0.98425 0.07874,
0.72244 0.82677 0.00000,
0.72244 0.98425 0.00000,
0.79331 0.82677 0.00000,
0.79331 0.98425 0.00000,
0.72244 0.82677 0.07874,
0.72244 0.98425 0.07874,
0.79331 0.82677 0.07874,
0.79331 0.98425 0.07874,
-0.98425 0.72244 0.00000,
-0.98425 0.72244 0.07874,
-0.98425 0.79331 0.00000,
-0.98425 0.79331 0.07874,
-0.82677 0.72244 0.00000,
-0.82677 0.72244 0.07874,
-0.82677 0.79331 0.00000,
-0.82677 0.79331 0.07874,
-0.98425 0.72244 0.00000,
-0.82677 0.72244 0.00000,
-0.98425 0.72244 0.07874,
-0.82677 0.72244 0.07874,
-0.98425 0.79331 0.00000,
-0.82677 0.79331 0.00000,
-0.98425 0.79331 0.07874,
-0.82677 0.79331 0.07874,
-0.98425 0.72244 0.00000,
-0.98425 0.79331 0.00000,
-0.82677 0.72244 0.00000,
-0.82677 0.79331 0.00000,
-0.98425 0.72244 0.07874,
-0.98425 0.79331 0.07874,
-0.82677 0.72244 0.07874,
-0.82677 0.79331 0.07874,
0.82677 0.72244 0.00000,
0.82677 0.72244 0.07874,
0.82677 0.79331 0.00000,
0.82677 0.79331 0.07874,
0.98425 0.72244 0.00000,
0.98425 0.72244 0.07874,
0.98425 0.79331 0.00000,
0.98425 0.79331 0.07874,
0.82677 0.72244 0.00000,
0.98425 0.72244 0.00000,
0.82677 0.72244 0.07874,
0.98425 0.72244 0.07874,
0.82677 0.79331 0.00000,
0.98425 0.79331 0.00000,
0.82677 0.79331 0.07874,
0.98425 0.79331 0.07874,
0.82677 0.72244 0.00000,
0.82677 0.79331 0.00000,
0.98425 0.72244 0.00000,
0.98425 0.79331 0.00000,
0.82677 0.72244 0.07874,
0.82677 0.79331 0.07874,
0.98425 0.72244 0.07874,
0.98425 0.79331 0.07874,
-0.72835 -0.72835 0.00000,
-0.72835 -0.72835 0.00787,
-0.72835 0.72835 0.00000,
-0.72835 0.72835 0.00787,
0.72835 -0.72835 0.00000,
0.72835 -0.72835 0.00787,
0.72835 0.72835 0.00000,
0.72835 0.72835 0.00787,
-0.72835 -0.72835 0.00000,
0.72835 -0.72835 0.00000,
-0.72835 -0.72835 0.00787,
0.72835 -0.72835 0.00787,
-0.72835 0.72835 0.00000,
0.72835 0.72835 0.00000,
-0.72835 0.72835 0.00787,
0.72835 0.72835 0.00787,
-0.72835 -0.72835 0.00000,
-0.72835 0.72835 0.00000,
0.72835 -0.72835 0.00000,
0.72835 0.72835 0.00000,
-0.72835 -0.72835 0.00787,
-0.72835 0.72835 0.00787,
0.72835 -0.72835 0.00787,
0.72835 0.72835 0.00787] }
 coordIndex [
1,2,0,-1,
1,3,2,-1,
5,4,6,-1,
5,6,7,-1,
11,8,9,-1,
11,10,8,-1,
15,13,12,-1,
15,12,14,-1,
19,16,17,-1,
19,18,16,-1,
23,21,20,-1,
23,20,22,-1,
25,26,24,-1,
25,27,26,-1,
29,28,30,-1,
29,30,31,-1,
35,32,33,-1,
35,34,32,-1,
39,37,36,-1,
39,36,38,-1,
43,40,41,-1,
43,42,40,-1,
47,45,44,-1,
47,44,46,-1,
49,50,48,-1,
49,51,50,-1,
53,52,54,-1,
53,54,55,-1,
59,56,57,-1,
59,58,56,-1,
63,61,60,-1,
63,60,62,-1,
67,64,65,-1,
67,66,64,-1,
71,69,68,-1,
71,68,70,-1,
73,74,72,-1,
73,75,74,-1,
77,76,78,-1,
77,78,79,-1,
83,80,81,-1,
83,82,80,-1,
87,85,84,-1,
87,84,86,-1,
91,88,89,-1,
91,90,88,-1,
95,93,92,-1,
95,92,94,-1,
97,98,96,-1,
97,99,98,-1,
101,100,102,-1,
101,102,103,-1,
107,104,105,-1,
107,106,104,-1,
111,109,108,-1,
111,108,110,-1,
115,112,113,-1,
115,114,112,-1,
119,117,116,-1,
119,116,118,-1,
121,122,120,-1,
121,123,122,-1,
125,124,126,-1,
125,126,127,-1,
131,128,129,-1,
131,130,128,-1,
135,133,132,-1,
135,132,134,-1,
139,136,137,-1,
139,138,136,-1,
143,141,140,-1,
143,140,142,-1,
145,146,144,-1,
145,147,146,-1,
149,148,150,-1,
149,150,151,-1,
155,152,153,-1,
155,154,152,-1,
159,157,156,-1,
159,156,158,-1,
163,160,161,-1,
163,162,160,-1,
167,165,164,-1,
167,164,166,-1,
169,170,168,-1,
169,171,170,-1,
173,172,174,-1,
173,174,175,-1,
179,176,177,-1,
179,178,176,-1,
183,181,180,-1,
183,180,182,-1,
187,184,185,-1,
187,186,184,-1,
191,189,188,-1,
191,188,190,-1,
193,194,192,-1,
193,195,194,-1,
197,196,198,-1,
197,198,199,-1,
203,200,201,-1,
203,202,200,-1,
207,205,204,-1,
207,204,206,-1,
211,208,209,-1,
211,210,208,-1,
215,213,212,-1,
215,212,214,-1,
217,218,216,-1,
217,219,218,-1,
221,220,222,-1,
221,222,223,-1,
227,224,225,-1,
227,226,224,-1,
231,229,228,-1,
231,228,230,-1,
235,232,233,-1,
235,234,232,-1,
239,237,236,-1,
239,236,238,-1,
241,242,240,-1,
241,243,242,-1,
245,244,246,-1,
245,246,247,-1,
251,248,249,-1,
251,250,248,-1,
255,253,252,-1,
255,252,254,-1,
259,256,257,-1,
259,258,256,-1,
263,261,260,-1,
263,260,262,-1,
265,266,264,-1,
265,267,266,-1,
269,268,270,-1,
269,270,271,-1,
275,272,273,-1,
275,274,272,-1,
279,277,276,-1,
279,276,278,-1,
283,280,281,-1,
283,282,280,-1,
287,285,284,-1,
287,284,286,-1,
289,290,288,-1,
289,291,290,-1,
293,292,294,-1,
293,294,295,-1,
299,296,297,-1,
299,298,296,-1,
303,301,300,-1,
303,300,302,-1,
307,304,305,-1,
307,306,304,-1,
311,309,308,-1,
311,308,310,-1,
313,314,312,-1,
313,315,314,-1,
317,316,318,-1,
317,318,319,-1,
323,320,321,-1,
323,322,320,-1,
327,325,324,-1,
327,324,326,-1,
331,328,329,-1,
331,330,328,-1,
335,333,332,-1,
335,332,334,-1,
337,338,336,-1,
337,339,338,-1,
341,340,342,-1,
341,342,343,-1,
347,344,345,-1,
347,346,344,-1,
351,349,348,-1,
351,348,350,-1,
355,352,353,-1,
355,354,352,-1,
359,357,356,-1,
359,356,358,-1,
361,362,360,-1,
361,363,362,-1,
365,364,366,-1,
365,366,367,-1,
371,368,369,-1,
371,370,368,-1,
375,373,372,-1,
375,372,374,-1,
379,376,377,-1,
379,378,376,-1,
383,381,380,-1,
383,380,382,-1,
385,386,384,-1,
385,387,386,-1,
389,388,390,-1,
389,390,391,-1,
395,392,393,-1,
395,394,392,-1,
399,397,396,-1,
399,396,398,-1,
403,400,401,-1,
403,402,400,-1,
407,405,404,-1,
407,404,406,-1,
409,410,408,-1,
409,411,410,-1,
413,412,414,-1,
413,414,415,-1,
419,416,417,-1,
419,418,416,-1,
423,421,420,-1,
423,420,422,-1,
427,424,425,-1,
427,426,424,-1,
431,429,428,-1,
431,428,430,-1,
433,434,432,-1,
433,435,434,-1,
437,436,438,-1,
437,438,439,-1,
443,440,441,-1,
443,442,440,-1,
447,445,444,-1,
447,444,446,-1,
451,448,449,-1,
451,450,448,-1,
455,453,452,-1,
455,452,454,-1,
457,458,456,-1,
457,459,458,-1,
461,460,462,-1,
461,462,463,-1,
467,464,465,-1,
467,466,464,-1,
471,469,468,-1,
471,468,470,-1,
475,472,473,-1,
475,474,472,-1,
479,477,476,-1,
479,476,478,-1,
481,482,480,-1,
481,483,482,-1,
485,484,486,-1,
485,486,487,-1,
491,488,489,-1,
491,490,488,-1,
495,493,492,-1,
495,492,494,-1,
499,496,497,-1,
499,498,496,-1,
503,501,500,-1,
503,500,502,-1,
505,506,504,-1,
505,507,506,-1,
509,508,510,-1,
509,510,511,-1,
515,512,513,-1,
515,514,512,-1,
519,517,516,-1,
519,516,518,-1,
523,520,521,-1,
523,522,520,-1,
527,525,524,-1,
527,524,526,-1,
529,530,528,-1,
529,531,530,-1,
533,532,534,-1,
533,534,535,-1,
539,536,537,-1,
539,538,536,-1,
543,541,540,-1,
543,540,542,-1,
547,544,545,-1,
547,546,544,-1,
551,549,548,-1,
551,548,550,-1,
553,554,552,-1,
553,555,554,-1,
557,556,558,-1,
557,558,559,-1,
563,560,561,-1,
563,562,560,-1,
567,565,564,-1,
567,564,566,-1,
571,568,569,-1,
571,570,568,-1,
575,573,572,-1,
575,572,574,-1,
577,578,576,-1,
577,579,578,-1,
581,580,582,-1,
581,582,583,-1,
587,584,585,-1,
587,586,584,-1,
591,589,588,-1,
591,588,590,-1,
595,592,593,-1,
595,594,592,-1,
599,597,596,-1,
599,596,598,-1,
601,602,600,-1,
601,603,602,-1,
605,604,606,-1,
605,606,607,-1,
611,608,609,-1,
611,610,608,-1,
615,613,612,-1,
615,612,614,-1,
619,616,617,-1,
619,618,616,-1,
623,621,620,-1,
623,620,622,-1,
625,626,624,-1,
625,627,626,-1,
629,628,630,-1,
629,630,631,-1,
635,632,633,-1,
635,634,632,-1,
639,637,636,-1,
639,636,638,-1,
643,640,641,-1,
643,642,640,-1,
647,645,644,-1,
647,644,646,-1,
649,650,648,-1,
649,651,650,-1,
653,652,654,-1,
653,654,655,-1,
659,656,657,-1,
659,658,656,-1,
663,661,660,-1,
663,660,662,-1,
667,664,665,-1,
667,666,664,-1,
671,669,668,-1,
671,668,670,-1,
673,674,672,-1,
673,675,674,-1,
677,676,678,-1,
677,678,679,-1,
683,680,681,-1,
683,682,680,-1,
687,685,684,-1,
687,684,686,-1,
691,688,689,-1,
691,690,688,-1,
695,693,692,-1,
695,692,694,-1,
697,698,696,-1,
697,699,698,-1,
701,700,702,-1,
701,702,703,-1,
707,704,705,-1,
707,706,704,-1,
711,709,708,-1,
711,708,710,-1,
715,712,713,-1,
715,714,712,-1,
719,717,716,-1,
719,716,718,-1,
721,722,720,-1,
721,723,722,-1,
725,724,726,-1,
725,726,727,-1,
731,728,729,-1,
731,730,728,-1,
735,733,732,-1,
735,732,734,-1,
739,736,737,-1,
739,738,736,-1,
743,741,740,-1,
743,740,742,-1,
745,746,744,-1,
745,747,746,-1,
749,748,750,-1,
749,750,751,-1,
755,752,753,-1,
755,754,752,-1,
759,757,756,-1,
759,756,758,-1,
763,760,761,-1,
763,762,760,-1,
767,765,764,-1,
767,764,766,-1,
769,770,768,-1,
769,771,770,-1,
773,772,774,-1,
773,774,775,-1,
779,776,777,-1,
779,778,776,-1,
783,781,780,-1,
783,780,782,-1,
787,784,785,-1,
787,786,784,-1,
791,789,788,-1,
791,788,790,-1,
793,794,792,-1,
793,795,794,-1,
797,796,798,-1,
797,798,799,-1,
803,800,801,-1,
803,802,800,-1,
807,805,804,-1,
807,804,806,-1,
811,808,809,-1,
811,810,808,-1,
815,813,812,-1,
815,812,814,-1,
817,818,816,-1,
817,819,818,-1,
821,820,822,-1,
821,822,823,-1,
827,824,825,-1,
827,826,824,-1,
831,829,828,-1,
831,828,830,-1,
835,832,833,-1,
835,834,832,-1,
839,837,836,-1,
839,836,838,-1,
841,842,840,-1,
841,843,842,-1,
845,844,846,-1,
845,846,847,-1,
851,848,849,-1,
851,850,848,-1,
855,853,852,-1,
855,852,854,-1,
859,856,857,-1,
859,858,856,-1,
863,861,860,-1,
863,860,862,-1,
865,866,864,-1,
865,867,866,-1,
869,868,870,-1,
869,870,871,-1,
875,872,873,-1,
875,874,872,-1,
879,877,876,-1,
879,876,878,-1,
883,880,881,-1,
883,882,880,-1,
887,885,884,-1,
887,884,886,-1,
889,890,888,-1,
889,891,890,-1,
893,892,894,-1,
893,894,895,-1,
899,896,897,-1,
899,898,896,-1,
903,901,900,-1,
903,900,902,-1,
907,904,905,-1,
907,906,904,-1,
911,909,908,-1,
911,908,910,-1,
913,914,912,-1,
913,915,914,-1,
917,916,918,-1,
917,918,919,-1,
923,920,921,-1,
923,922,920,-1,
927,925,924,-1,
927,924,926,-1,
931,928,929,-1,
931,930,928,-1,
935,933,932,-1,
935,932,934,-1,
937,938,936,-1,
937,939,938,-1,
941,940,942,-1,
941,942,943,-1,
947,944,945,-1,
947,946,944,-1,
951,949,948,-1,
951,948,950,-1,
955,952,953,-1,
955,954,952,-1,
959,957,956,-1,
959,956,958,-1,
961,962,960,-1,
961,963,962,-1,
965,964,966,-1,
965,966,967,-1,
971,968,969,-1,
971,970,968,-1,
975,973,972,-1,
975,972,974,-1,
979,976,977,-1,
979,978,976,-1,
983,981,980,-1,
983,980,982,-1,
985,986,984,-1,
985,987,986,-1,
989,988,990,-1,
989,990,991,-1,
995,992,993,-1,
995,994,992,-1,
999,997,996,-1,
999,996,998,-1,
1003,1000,1001,-1,
1003,1002,1000,-1,
1007,1005,1004,-1,
1007,1004,1006,-1,
1009,1010,1008,-1,
1009,1011,1010,-1,
1013,1012,1014,-1,
1013,1014,1015,-1,
1019,1016,1017,-1,
1019,1018,1016,-1,
1023,1021,1020,-1,
1023,1020,1022,-1,
1027,1024,1025,-1,
1027,1026,1024,-1,
1031,1029,1028,-1,
1031,1028,1030,-1,
1033,1034,1032,-1,
1033,1035,1034,-1,
1037,1036,1038,-1,
1037,1038,1039,-1,
1043,1040,1041,-1,
1043,1042,1040,-1,
1047,1045,1044,-1,
1047,1044,1046,-1,
1051,1048,1049,-1,
1051,1050,1048,-1,
1055,1053,1052,-1,
1055,1052,1054,-1,
1057,1058,1056,-1,
1057,1059,1058,-1,
1061,1060,1062,-1,
1061,1062,1063,-1,
1067,1064,1065,-1,
1067,1066,1064,-1,
1071,1069,1068,-1,
1071,1068,1070,-1,
1075,1072,1073,-1,
1075,1074,1072,-1,
1079,1077,1076,-1,
1079,1076,1078,-1,
1081,1082,1080,-1,
1081,1083,1082,-1,
1085,1084,1086,-1,
1085,1086,1087,-1,
1091,1088,1089,-1,
1091,1090,1088,-1,
1095,1093,1092,-1,
1095,1092,1094,-1,
1099,1096,1097,-1,
1099,1098,1096,-1,
1103,1101,1100,-1,
1103,1100,1102,-1,
1105,1106,1104,-1,
1105,1107,1106,-1,
1109,1108,1110,-1,
1109,1110,1111,-1,
1115,1112,1113,-1,
1115,1114,1112,-1,
1119,1117,1116,-1,
1119,1116,1118,-1,
1123,1120,1121,-1,
1123,1122,1120,-1,
1127,1125,1124,-1,
1127,1124,1126,-1,
1129,1130,1128,-1,
1129,1131,1130,-1,
1133,1132,1134,-1,
1133,1134,1135,-1,
1139,1136,1137,-1,
1139,1138,1136,-1,
1143,1141,1140,-1,
1143,1140,1142,-1,
1147,1144,1145,-1,
1147,1146,1144,-1,
1151,1149,1148,-1,
1151,1148,1150,-1,
1153,1154,1152,-1,
1153,1155,1154,-1,
1157,1156,1158,-1,
1157,1158,1159,-1,
1163,1160,1161,-1,
1163,1162,1160,-1,
1167,1165,1164,-1,
1167,1164,1166,-1,
1171,1168,1169,-1,
1171,1170,1168,-1,
1175,1173,1172,-1,
1175,1172,1174,-1] } }
Shape { appearance Appearance { material Material { diffuseColor 0.900 0.900 0.900 specularColor 0.3 0.3 0.3 shininess 0.4 } }
 geometry IndexedFaceSet { creaseAngle 0.5 coord Coordinate { point [
-0.66929 -0.74803 0.29528,
-0.66929 -0.74803 0.29921,
-0.66968 -0.74019 0.29921,
-0.67085 -0.73243 0.29921,
-0.67279 -0.72482 0.29921,
-0.67547 -0.71745 0.29921,
-0.67888 -0.71037 0.29921,
-0.68297 -0.70368 0.29921,
-0.68771 -0.69742 0.29921,
-0.69305 -0.69166 0.29921,
-0.69894 -0.68647 0.29921,
-0.70531 -0.68189 0.29921,
-0.71211 -0.67796 0.29921,
-0.71926 -0.67473 0.29921,
-0.72671 -0.67223 0.29921,
-0.73436 -0.67049 0.29921,
-0.74215 -0.66951 0.29921,
-0.74999 -0.66932 0.29921,
-0.75782 -0.66990 0.29921,
-0.76555 -0.67127 0.29921,
-0.77311 -0.67339 0.29921,
-0.78042 -0.67626 0.29921,
-0.78740 -0.67984 0.29921,
-0.79400 -0.68410 0.29921,
-0.80013 -0.68899 0.29921,
-0.80575 -0.69447 0.29921,
-0.81080 -0.70049 0.29921,
-0.81522 -0.70697 0.29921,
-0.81897 -0.71387 0.29921,
-0.82202 -0.72110 0.29921,
-0.82434 -0.72860 0.29921,
-0.82589 -0.73630 0.29921,
-0.82667 -0.74411 0.29921,
-0.82667 -0.75196 0.29921,
-0.82589 -0.75977 0.29921,
-0.82434 -0.76746 0.29921,
-0.82202 -0.77496 0.29921,
-0.81897 -0.78220 0.29921,
-0.81522 -0.78909 0.29921,
-0.81080 -0.79558 0.29921,
-0.80575 -0.80159 0.29921,
-0.80013 -0.80707 0.29921,
-0.79400 -0.81196 0.29921,
-0.78740 -0.81622 0.29921,
-0.78042 -0.81980 0.29921,
-0.77311 -0.82267 0.29921,
-0.76555 -0.82480 0.29921,
-0.75782 -0.82616 0.29921,
-0.74999 -0.82675 0.29921,
-0.74215 -0.82655 0.29921,
-0.73436 -0.82558 0.29921,
-0.72671 -0.82383 0.29921,
-0.71926 -0.82133 0.29921,
-0.71211 -0.81810 0.29921,
-0.70531 -0.81418 0.29921,
-0.69894 -0.80959 0.29921,
-0.69305 -0.80440 0.29921,
-0.68771 -0.79864 0.29921,
-0.68297 -0.79239 0.29921,
-0.67888 -0.78569 0.29921,
-0.67547 -0.77862 0.29921,
-0.67279 -0.77124 0.29921,
-0.67085 -0.76363 0.29921,
-0.66968 -0.75587 0.29921,
-0.66929 -0.74803 0.29921,
-0.66929 -0.74803 0.29528,
-0.66968 -0.74019 0.29528,
-0.67085 -0.73243 0.29528,
-0.67279 -0.72482 0.29528,
-0.67547 -0.71745 0.29528,
-0.67888 -0.71037 0.29528,
-0.68297 -0.70368 0.29528,
-0.68771 -0.69742 0.29528,
-0.69305 -0.69166 0.29528,
-0.69894 -0.68647 0.29528,
-0.70531 -0.68189 0.29528,
-0.71211 -0.67796 0.29528,
-0.71926 -0.67473 0.29528,
-0.72671 -0.67223 0.29528,
-0.73436 -0.67049 0.29528,
-0.74215 -0.66951 0.29528,
-0.74999 -0.66932 0.29528,
-0.75782 -0.66990 0.29528,
-0.76555 -0.67127 0.29528,
-0.77311 -0.67339 0.29528,
-0.78042 -0.67626 0.29528,
-0.78740 -0.67984 0.29528,
-0.79400 -0.68410 0.29528,
-0.80013 -0.68899 0.29528,
-0.80575 -0.69447 0.29528,
-0.81080 -0.70049 0.29528,
-0.81522 -0.70697 0.29528,
-0.81897 -0.71387 0.29528,
-0.82202 -0.72110 0.29528,
-0.82434 -0.72860 0.29528,
-0.82589 -0.73630 0.29528,
-0.82667 -0.74411 0.29528,
-0.82667 -0.75196 0.29528,
-0.82589 -0.75977 0.29528,
-0.82434 -0.76746 0.29528,
-0.82202 -0.77496 0.29528,
-0.81897 -0.78220 0.29528,
-0.81522 -0.78909 0.29528,
-0.81080 -0.79558 0.29528,
-0.80575 -0.80159 0.29528,
-0.80013 -0.80707 0.29528,
-0.79400 -0.81196 0.29528,
-0.78740 -0.81622 0.29528,
-0.78042 -0.81980 0.29528,
-0.77311 -0.82267 0.29528,
-0.76555 -0.82480 0.29528,
-0.75782 -0.82616 0.29528,
-0.74999 -0.82675 0.29528,
-0.74215 -0.82655 0.29528,
-0.73436 -0.82558 0.29528,
-0.72671 -0.82383 0.29528,
-0.71926 -0.82133 0.29528,
-0.71211 -0.81810 0.29528,
-0.70531 -0.81418 0.29528,
-0.69894 -0.80959 0.29528,
-0.69305 -0.80440 0.29528,
-0.68771 -0.79864 0.29528,
-0.68297 -0.79239 0.29528,
-0.67888 -0.78569 0.29528,
-0.67547 -0.77862 0.29528,
-0.67279 -0.77124 0.29528,
-0.67085 -0.76363 0.29528,
-0.66968 -0.75587 0.29528,
-0.66929 -0.74803 0.29528,
-0.66968 -0.74019 0.29528,
-0.67085 -0.73243 0.29528,
-0.67279 -0.72482 0.29528,
-0.67547 -0.71745 0.29528,
-0.67888 -0.71037 0.29528,
-0.68297 -0.70368 0.29528,
-0.68771 -0.69742 0.29528,
-0.69305 -0.69166 0.29528,
-0.69894 -0.68647 0.29528,
-0.70531 -0.68189 0.29528,
-0.71211 -0.67796 0.29528,
-0.71926 -0.67473 0.29528,
-0.72671 -0.67223 0.29528,
-0.73436 -0.67049 0.29528,
-0.74215 -0.66951 0.29528,
-0.74999 -0.66932 0.29528,
-0.75782 -0.66990 0.29528,
-0.76555 -0.67127 0.29528,
-0.77311 -0.67339 0.29528,
-0.78042 -0.67626 0.29528,
-0.78740 -0.67984 0.29528,
-0.79400 -0.68410 0.29528,
-0.80013 -0.68899 0.29528,
-0.80575 -0.69447 0.29528,
-0.81080 -0.70049 0.29528,
-0.81522 -0.70697 0.29528,
-0.81897 -0.71387 0.29528,
-0.82202 -0.72110 0.29528,
-0.82434 -0.72860 0.29528,
-0.82589 -0.73630 0.29528,
-0.82667 -0.74411 0.29528,
-0.82667 -0.75196 0.29528,
-0.82589 -0.75977 0.29528,
-0.82434 -0.76746 0.29528,
-0.82202 -0.77496 0.29528,
-0.81897 -0.78220 0.29528,
-0.81522 -0.78909 0.29528,
-0.81080 -0.79558 0.29528,
-0.80575 -0.80159 0.29528,
-0.80013 -0.80707 0.29528,
-0.79400 -0.81196 0.29528,
-0.78740 -0.81622 0.29528,
-0.78042 -0.81980 0.29528,
-0.77311 -0.82267 0.29528,
-0.76555 -0.82480 0.29528,
-0.75782 -0.82616 0.29528,
-0.74999 -0.82675 0.29528,
-0.74215 -0.82655 0.29528,
-0.73436 -0.82558 0.29528,
-0.72671 -0.82383 0.29528,
-0.71926 -0.82133 0.29528,
-0.71211 -0.81810 0.29528,
-0.70531 -0.81418 0.29528,
-0.69894 -0.80959 0.29528,
-0.69305 -0.80440 0.29528,
-0.68771 -0.79864 0.29528,
-0.68297 -0.79239 0.29528,
-0.67888 -0.78569 0.29528,
-0.67547 -0.77862 0.29528,
-0.67279 -0.77124 0.29528,
-0.67085 -0.76363 0.29528,
-0.66968 -0.75587 0.29528,
-0.66929 -0.74803 0.29921,
-0.66968 -0.74019 0.29921,
-0.67085 -0.73243 0.29921,
-0.67279 -0.72482 0.29921,
-0.67547 -0.71745 0.29921,
-0.67888 -0.71037 0.29921,
-0.68297 -0.70368 0.29921,
-0.68771 -0.69742 0.29921,
-0.69305 -0.69166 0.29921,
-0.69894 -0.68647 0.29921,
-0.70531 -0.68189 0.29921,
-0.71211 -0.67796 0.29921,
-0.71926 -0.67473 0.29921,
-0.72671 -0.67223 0.29921,
-0.73436 -0.67049 0.29921,
-0.74215 -0.66951 0.29921,
-0.74999 -0.66932 0.29921,
-0.75782 -0.66990 0.29921,
-0.76555 -0.67127 0.29921,
-0.77311 -0.67339 0.29921,
-0.78042 -0.67626 0.29921,
-0.78740 -0.67984 0.29921,
-0.79400 -0.68410 0.29921,
-0.80013 -0.68899 0.29921,
-0.80575 -0.69447 0.29921,
-0.81080 -0.70049 0.29921,
-0.81522 -0.70697 0.29921,
-0.81897 -0.71387 0.29921,
-0.82202 -0.72110 0.29921,
-0.82434 -0.72860 0.29921,
-0.82589 -0.73630 0.29921,
-0.82667 -0.74411 0.29921,
-0.82667 -0.75196 0.29921,
-0.82589 -0.75977 0.29921,
-0.82434 -0.76746 0.29921,
-0.82202 -0.77496 0.29921,
-0.81897 -0.78220 0.29921,
-0.81522 -0.78909 0.29921,
-0.81080 -0.79558 0.29921,
-0.80575 -0.80159 0.29921,
-0.80013 -0.80707 0.29921,
-0.79400 -0.81196 0.29921,
-0.78740 -0.81622 0.29921,
-0.78042 -0.81980 0.29921,
-0.77311 -0.82267 0.29921,
-0.76555 -0.82480 0.29921,
-0.75782 -0.82616 0.29921,
-0.74999 -0.82675 0.29921,
-0.74215 -0.82655 0.29921,
-0.73436 -0.82558 0.29921,
-0.72671 -0.82383 0.29921,
-0.71926 -0.82133 0.29921,
-0.71211 -0.81810 0.29921,
-0.70531 -0.81418 0.29921,
-0.69894 -0.80959 0.29921,
-0.69305 -0.80440 0.29921,
-0.68771 -0.79864 0.29921,
-0.68297 -0.79239 0.29921,
-0.67888 -0.78569 0.29921,
-0.67547 -0.77862 0.29921,
-0.67279 -0.77124 0.29921,
-0.67085 -0.76363 0.29921,
-0.66968 -0.75587 0.29921] }
 coordIndex [
66,1,0,-1,
66,2,1,-1,
67,3,2,-1,
67,2,66,-1,
68,4,3,-1,
68,3,67,-1,
69,5,4,-1,
69,4,68,-1,
70,6,5,-1,
70,5,69,-1,
71,7,6,-1,
71,6,70,-1,
72,8,7,-1,
72,7,71,-1,
73,9,8,-1,
73,8,72,-1,
74,10,9,-1,
74,9,73,-1,
75,11,10,-1,
75,10,74,-1,
76,12,11,-1,
76,11,75,-1,
77,13,12,-1,
77,12,76,-1,
78,14,13,-1,
78,13,77,-1,
79,15,14,-1,
79,14,78,-1,
80,16,15,-1,
80,15,79,-1,
81,17,16,-1,
81,16,80,-1,
82,18,17,-1,
82,17,81,-1,
83,19,18,-1,
83,18,82,-1,
84,19,83,-1,
84,20,19,-1,
85,20,84,-1,
85,21,20,-1,
86,21,85,-1,
86,22,21,-1,
87,22,86,-1,
87,23,22,-1,
88,24,23,-1,
88,23,87,-1,
89,25,24,-1,
89,24,88,-1,
90,26,25,-1,
90,25,89,-1,
91,27,26,-1,
91,26,90,-1,
92,28,27,-1,
92,27,91,-1,
93,29,28,-1,
93,28,92,-1,
94,30,29,-1,
94,29,93,-1,
95,31,30,-1,
95,30,94,-1,
96,32,31,-1,
96,31,95,-1,
97,33,32,-1,
97,32,96,-1,
98,34,33,-1,
98,33,97,-1,
99,35,34,-1,
99,34,98,-1,
100,36,35,-1,
100,35,99,-1,
101,37,36,-1,
101,36,100,-1,
102,38,37,-1,
102,37,101,-1,
103,39,38,-1,
103,38,102,-1,
104,40,39,-1,
104,39,103,-1,
105,41,40,-1,
105,40,104,-1,
106,42,41,-1,
106,41,105,-1,
107,43,42,-1,
107,42,106,-1,
108,43,107,-1,
108,44,43,-1,
109,44,108,-1,
109,45,44,-1,
110,45,109,-1,
110,46,45,-1,
111,46,110,-1,
111,47,46,-1,
112,47,111,-1,
112,48,47,-1,
113,48,112,-1,
113,49,48,-1,
114,49,113,-1,
114,50,49,-1,
115,50,114,-1,
115,51,50,-1,
116,51,115,-1,
116,52,51,-1,
117,52,116,-1,
117,53,52,-1,
118,53,117,-1,
118,54,53,-1,
119,54,118,-1,
119,55,54,-1,
120,55,119,-1,
120,56,55,-1,
121,56,120,-1,
121,57,56,-1,
122,58,57,-1,
122,57,121,-1,
123,59,58,-1,
123,58,122,-1,
124,60,59,-1,
124,59,123,-1,
125,61,60,-1,
125,60,124,-1,
126,62,61,-1,
126,61,125,-1,
127,63,62,-1,
127,62,126,-1,
65,64,63,-1,
65,63,127,-1,
186,182,181,-1,
186,183,182,-1,
186,184,183,-1,
186,185,184,-1,
129,128,190,-1,
136,130,129,-1,
136,131,130,-1,
136,132,131,-1,
136,133,132,-1,
136,134,133,-1,
136,135,134,-1,
136,138,137,-1,
136,139,138,-1,
136,140,139,-1,
136,141,140,-1,
136,142,141,-1,
136,143,142,-1,
136,144,143,-1,
136,145,144,-1,
136,146,145,-1,
136,147,146,-1,
136,148,147,-1,
136,149,148,-1,
136,150,149,-1,
136,151,150,-1,
136,152,151,-1,
136,153,152,-1,
136,186,181,-1,
136,154,153,-1,
136,155,154,-1,
136,156,155,-1,
136,157,156,-1,
136,158,157,-1,
136,159,158,-1,
136,160,159,-1,
136,161,160,-1,
136,162,161,-1,
136,163,162,-1,
136,164,163,-1,
136,165,164,-1,
136,166,165,-1,
136,167,166,-1,
136,168,167,-1,
136,169,168,-1,
136,170,169,-1,
136,171,170,-1,
136,172,171,-1,
136,173,172,-1,
136,174,173,-1,
136,175,174,-1,
136,176,175,-1,
136,177,176,-1,
136,178,177,-1,
136,179,178,-1,
136,180,179,-1,
136,181,180,-1,
136,129,190,-1,
136,187,186,-1,
136,188,187,-1,
136,189,188,-1,
136,190,189,-1,
249,244,245,-1,
249,245,246,-1,
249,246,247,-1,
249,247,248,-1,
192,253,191,-1,
199,192,193,-1,
199,193,194,-1,
199,194,195,-1,
199,195,196,-1,
199,196,197,-1,
199,197,198,-1,
199,200,201,-1,
199,201,202,-1,
199,202,203,-1,
199,203,204,-1,
199,204,205,-1,
199,205,206,-1,
199,206,207,-1,
199,207,208,-1,
199,208,209,-1,
199,209,210,-1,
199,210,211,-1,
199,211,212,-1,
199,212,213,-1,
199,213,214,-1,
199,214,215,-1,
199,215,216,-1,
199,244,249,-1,
199,216,217,-1,
199,217,218,-1,
199,218,219,-1,
199,219,220,-1,
199,220,221,-1,
199,221,222,-1,
199,222,223,-1,
199,223,224,-1,
199,224,225,-1,
199,225,226,-1,
199,226,227,-1,
199,227,228,-1,
199,228,229,-1,
199,229,230,-1,
199,230,231,-1,
199,231,232,-1,
199,232,233,-1,
199,233,234,-1,
199,234,235,-1,
199,235,236,-1,
199,236,237,-1,
199,237,238,-1,
199,238,239,-1,
199,239,240,-1,
199,240,241,-1,
199,241,242,-1,
199,242,243,-1,
199,243,244,-1,
199,253,192,-1,
199,249,250,-1,
199,250,251,-1,
199,251,252,-1,
199,252,253,-1] } }
