#VRML V2.0 utf8
Shape { appearance Appearance { material Material { diffuseColor 0.120 0.120 0.130 specularColor 0.3 0.3 0.3 shininess 0.4 } }
 geometry IndexedFaceSet { creaseAngle 0.5 coord Coordinate { point [
-0.64961 -0.64961 0.01969,
-0.64961 -0.64961 0.37402,
-0.64961 0.64961 0.01969,
-0.64961 0.64961 0.37402,
0.64961 -0.64961 0.01969,
0.64961 -0.64961 0.37402,
0.64961 0.64961 0.01969,
0.64961 0.64961 0.37402,
-0.64961 -0.64961 0.01969,
0.64961 -0.64961 0.01969,
-0.64961 -0.64961 0.37402,
0.64961 -0.64961 0.37402,
-0.64961 0.64961 0.01969,
0.64961 0.64961 0.01969,
-0.64961 0.64961 0.37402,
0.64961 0.64961 0.37402,
-0.64961 -0.64961 0.01969,
-0.64961 0.64961 0.01969,
0.64961 -0.64961 0.01969,
0.64961 0.64961 0.01969,
-0.64961 -0.64961 0.37402,
-0.64961 0.64961 0.37402,
0.64961 -0.64961 0.37402,
0.64961 0.64961 0.37402] }
 coordIndex [
1,2,0,-1,
1,3,2,-1,
5,4,6,-1,
5,6,7,-1,
11,8,9,-1,
11,10,8,-1,
15,13,12,-1,
15,12,14,-1,
19,16,17,-1,
19,18,16,-1,
23,21,20,-1,
23,20,22,-1] } }
Shape { appearance Appearance { material Material { diffuseColor 0.820 0.820 0.840 specularColor 0.3 0.3 0.3 shininess 0.4 } }
 geometry IndexedFaceSet { creaseAngle 0.5 coord Coordinate { point [
-0.13780 -0.47244 0.00000,
-0.13780 -0.47244 0.01969,
-0.13780 0.47244 0.00000,
-0.13780 0.47244 0.01969,
-0.13780 0.47244 0.00000,
0.51181 0.47244 0.00000,
-0.13780 -0.47244 0.00000,
0.51181 -0.47244 0.00000,
0.51181 -0.57087 0.00000,
0.68898 -0.57087 0.00000,
0.68898 0.57087 0.00000,
0.51181 0.57087 0.00000,
0.51181 0.57087 0.00000,
0.68898 0.57087 0.00000,
0.51181 0.57087 0.07874,
0.68898 0.57087 0.07874,
0.51181 -0.57087 0.07874,
0.51181 0.57087 0.07874,
0.68898 -0.57087 0.07874,
0.68898 0.57087 0.07874,
0.68898 0.57087 0.00000,
0.68898 -0.57087 0.00000,
0.68898 0.57087 0.07874,
0.68898 -0.57087 0.07874,
0.51181 -0.57087 0.00000,
0.68898 -0.57087 0.00000,
0.51181 -0.57087 0.07874,
0.68898 -0.57087 0.07874,
0.51181 -0.57087 0.07874,
0.51181 0.57087 0.07874,
0.51181 -0.57087 0.00000,
0.51181 -0.47244 0.00000,
0.51181 -0.47244 0.01969,
0.51181 0.47244 0.01969,
0.51181 0.47244 0.00000,
0.51181 0.57087 0.00000,
-0.13780 0.47244 0.00000,
0.51181 0.47244 0.00000,
-0.13780 0.47244 0.01969,
0.51181 0.47244 0.01969,
-0.13780 0.47244 0.01969,
0.51181 0.47244 0.01969,
-0.13780 -0.47244 0.01969,
0.51181 -0.47244 0.01969,
-0.13780 -0.47244 0.00000,
0.51181 -0.47244 0.00000,
-0.13780 -0.47244 0.01969,
0.51181 -0.47244 0.01969,
-0.68898 -0.45669 0.00000,
-0.68898 -0.45669 0.07874,
-0.68898 -0.32283 0.00000,
-0.68898 -0.32283 0.07874,
-0.68898 -0.45669 0.00000,
-0.68898 -0.32283 0.00000,
-0.51181 -0.45669 0.00000,
-0.51181 -0.32283 0.00000,
-0.51181 -0.45669 0.00000,
-0.51181 -0.45669 0.07874,
-0.51181 -0.32283 0.00000,
-0.51181 -0.32283 0.07874,
-0.68898 -0.32283 0.00000,
-0.51181 -0.32283 0.00000,
-0.68898 -0.32283 0.07874,
-0.51181 -0.32283 0.07874,
-0.68898 -0.45669 0.07874,
-0.68898 -0.32283 0.07874,
-0.51181 -0.45669 0.07874,
-0.51181 -0.32283 0.07874,
-0.68898 -0.45669 0.00000,
-0.51181 -0.45669 0.00000,
-0.68898 -0.45669 0.07874,
-0.51181 -0.45669 0.07874,
-0.68898 -0.19685 0.00000,
-0.68898 -0.19685 0.07874,
-0.68898 -0.06299 0.00000,
-0.68898 -0.06299 0.07874,
-0.68898 -0.19685 0.00000,
-0.68898 -0.06299 0.00000,
-0.51181 -0.19685 0.00000,
-0.51181 -0.06299 0.00000,
-0.51181 -0.19685 0.00000,
-0.51181 -0.19685 0.07874,
-0.51181 -0.06299 0.00000,
-0.51181 -0.06299 0.07874,
-0.68898 -0.06299 0.00000,
-0.51181 -0.06299 0.00000,
-0.68898 -0.06299 0.07874,
-0.51181 -0.06299 0.07874,
-0.68898 -0.19685 0.07874,
-0.68898 -0.06299 0.07874,
-0.51181 -0.19685 0.07874,
-0.51181 -0.06299 0.07874,
-0.68898 -0.19685 0.00000,
-0.51181 -0.19685 0.00000,
-0.68898 -0.19685 0.07874,
-0.51181 -0.19685 0.07874,
-0.68898 0.06299 0.00000,
-0.68898 0.06299 0.07874,
-0.68898 0.19685 0.00000,
-0.68898 0.19685 0.07874,
-0.68898 0.06299 0.00000,
-0.68898 0.19685 0.00000,
-0.51181 0.06299 0.00000,
-0.51181 0.19685 0.00000,
-0.51181 0.06299 0.00000,
-0.51181 0.06299 0.07874,
-0.51181 0.19685 0.00000,
-0.51181 0.19685 0.07874,
-0.68898 0.19685 0.00000,
-0.51181 0.19685 0.00000,
-0.68898 0.19685 0.07874,
-0.51181 0.19685 0.07874,
-0.68898 0.06299 0.07874,
-0.68898 0.19685 0.07874,
-0.51181 0.06299 0.07874,
-0.51181 0.19685 0.07874,
-0.68898 0.06299 0.00000,
-0.51181 0.06299 0.00000,
-0.68898 0.06299 0.07874,
-0.51181 0.06299 0.07874,
-0.68898 0.32283 0.00000,
-0.68898 0.32283 0.07874,
-0.68898 0.45669 0.00000,
-0.68898 0.45669 0.07874,
-0.68898 0.32283 0.00000,
-0.68898 0.45669 0.00000,
-0.51181 0.32283 0.00000,
-0.51181 0.45669 0.00000,
-0.51181 0.32283 0.00000,
-0.51181 0.32283 0.07874,
-0.51181 0.45669 0.00000,
-0.51181 0.45669 0.07874,
-0.68898 0.45669 0.00000,
-0.51181 0.45669 0.00000,
-0.68898 0.45669 0.07874,
-0.51181 0.45669 0.07874,
-0.68898 0.32283 0.07874,
-0.68898 0.45669 0.07874,
-0.51181 0.32283 0.07874,
-0.51181 0.45669 0.07874,
-0.68898 0.32283 0.00000,
-0.51181 0.32283 0.00000,
-0.68898 0.32283 0.07874,
-0.51181 0.32283 0.07874] }
 coordIndex [
1,2,0,-1,
1,3,2,-1,
9,8,7,-1,
5,6,4,-1,
5,7,6,-1,
10,5,11,-1,
10,9,7,-1,
10,7,5,-1,
15,13,12,-1,
15,12,14,-1,
19,17,16,-1,
19,16,18,-1,
23,21,20,-1,
23,20,22,-1,
27,24,25,-1,
27,26,24,-1,
33,35,34,-1,
33,29,35,-1,
30,32,31,-1,
28,32,30,-1,
29,32,28,-1,
29,33,32,-1,
39,37,36,-1,
39,36,38,-1,
41,40,42,-1,
41,42,43,-1,
47,44,45,-1,
47,46,44,-1,
49,50,48,-1,
49,51,50,-1,
55,52,53,-1,
55,54,52,-1,
57,56,58,-1,
57,58,59,-1,
63,61,60,-1,
63,60,62,-1,
67,65,64,-1,
67,64,66,-1,
71,68,69,-1,
71,70,68,-1,
73,74,72,-1,
73,75,74,-1,
79,76,77,-1,
79,78,76,-1,
81,80,82,-1,
81,82,83,-1,
87,85,84,-1,
87,84,86,-1,
91,89,88,-1,
91,88,90,-1,
95,92,93,-1,
95,94,92,-1,
97,98,96,-1,
97,99,98,-1,
103,100,101,-1,
103,102,100,-1,
105,104,106,-1,
105,106,107,-1,
111,109,108,-1,
111,108,110,-1,
115,113,112,-1,
115,112,114,-1,
119,116,117,-1,
119,118,116,-1,
121,122,120,-1,
121,123,122,-1,
127,124,125,-1,
127,126,124,-1,
129,128,130,-1,
129,130,131,-1,
135,133,132,-1,
135,132,134,-1,
139,137,136,-1,
139,136,138,-1,
143,140,141,-1,
143,142,140,-1] } }
Shape { appearance Appearance { material Material { diffuseColor 0.900 0.900 0.900 specularColor 0.3 0.3 0.3 shininess 0.4 } }
 geometry IndexedFaceSet { creaseAngle 0.5 coord Coordinate { point [
-0.43307 0.49213 0.37402,
-0.43307 0.49213 0.37795,
-0.43336 0.49801 0.37795,
-0.43424 0.50383 0.37795,
-0.43569 0.50953 0.37795,
-0.43771 0.51507 0.37795,
-0.44026 0.52037 0.37795,
-0.44333 0.52539 0.37795,
-0.44689 0.53009 0.37795,
-0.45089 0.53440 0.37795,
-0.45531 0.53830 0.37795,
-0.46009 0.54173 0.37795,
-0.46518 0.54468 0.37795,
-0.47055 0.54710 0.37795,
-0.47613 0.54897 0.37795,
-0.48187 0.55028 0.37795,
-0.48771 0.55102 0.37795,
-0.49360 0.55116 0.37795,
-0.49947 0.55072 0.37795,
-0.50527 0.54970 0.37795,
-0.51093 0.54811 0.37795,
-0.51641 0.54596 0.37795,
-0.52165 0.54327 0.37795,
-0.52660 0.54008 0.37795,
-0.53120 0.53640 0.37795,
-0.53542 0.53229 0.37795,
-0.53920 0.52778 0.37795,
-0.54252 0.52292 0.37795,
-0.54533 0.51775 0.37795,
-0.54762 0.51232 0.37795,
-0.54935 0.50670 0.37795,
-0.55052 0.50093 0.37795,
-0.55111 0.49507 0.37795,
-0.55111 0.48918 0.37795,
-0.55052 0.48332 0.37795,
-0.54935 0.47755 0.37795,
-0.54762 0.47193 0.37795,
-0.54533 0.46650 0.37795,
-0.54252 0.46133 0.37795,
-0.53920 0.45647 0.37795,
-0.53542 0.45196 0.37795,
-0.53120 0.44785 0.37795,
-0.52660 0.44418 0.37795,
-0.52165 0.44098 0.37795,
-0.51641 0.43830 0.37795,
-0.51093 0.43615 0.37795,
-0.50527 0.43455 0.37795,
-0.49947 0.43353 0.37795,
-0.49360 0.43309 0.37795,
-0.48771 0.43324 0.37795,
-0.48187 0.43397 0.37795,
-0.47613 0.43528 0.37795,
-0.47055 0.43715 0.37795,
-0.46518 0.43957 0.37795,
-0.46009 0.44252 0.37795,
-0.45531 0.44595 0.37795,
-0.45089 0.44985 0.37795,
-0.44689 0.45417 0.37795,
-0.44333 0.45886 0.37795,
-0.44026 0.46388 0.37795,
-0.43771 0.46919 0.37795,
-0.43569 0.47472 0.37795,
-0.43424 0.48042 0.37795,
-0.43336 0.48625 0.37795,
-0.43307 0.49213 0.37795,
-0.43307 0.49213 0.37402,
-0.43336 0.49801 0.37402,
-0.43424 0.50383 0.37402,
-0.43569 0.50953 0.37402,
-0.43771 0.51507 0.37402,
-0.44026 0.52037 0.37402,
-0.44333 0.52539 0.37402,
-0.44689 0.53009 0.37402,
-0.45089 0.53440 0.37402,
-0.45531 0.53830 0.37402,
-0.46009 0.54173 0.37402,
-0.46518 0.54468 0.37402,
-0.47055 0.54710 0.37402,
-0.47613 0.54897 0.37402,
-0.48187 0.55028 0.37402,
-0.48771 0.55102 0.37402,
-0.49360 0.55116 0.37402,
-0.49947 0.55072 0.37402,
-0.50527 0.54970 0.37402,
-0.51093 0.54811 0.37402,
-0.51641 0.54596 0.37402,
-0.52165 0.54327 0.37402,
-0.52660 0.54008 0.37402,
-0.53120 0.53640 0.37402,
-0.53542 0.53229 0.37402,
-0.53920 0.52778 0.37402,
-0.54252 0.52292 0.37402,
-0.54533 0.51775 0.37402,
-0.54762 0.51232 0.37402,
-0.54935 0.50670 0.37402,
-0.55052 0.50093 0.37402,
-0.55111 0.49507 0.37402,
-0.55111 0.48918 0.37402,
-0.55052 0.48332 0.37402,
-0.54935 0.47755 0.37402,
-0.54762 0.47193 0.37402,
-0.54533 0.46650 0.37402,
-0.54252 0.46133 0.37402,
-0.53920 0.45647 0.37402,
-0.53542 0.45196 0.37402,
-0.53120 0.44785 0.37402,
-0.52660 0.44418 0.37402,
-0.52165 0.44098 0.37402,
-0.51641 0.43830 0.37402,
-0.51093 0.43615 0.37402,
-0.50527 0.43455 0.37402,
-0.49947 0.43353 0.37402,
-0.49360 0.43309 0.37402,
-0.48771 0.43324 0.37402,
-0.48187 0.43397 0.37402,
-0.47613 0.43528 0.37402,
-0.47055 0.43715 0.37402,
-0.46518 0.43957 0.37402,
-0.46009 0.44252 0.37402,
-0.45531 0.44595 0.37402,
-0.45089 0.44985 0.37402,
-0.44689 0.45417 0.37402,
-0.44333 0.45886 0.37402,
-0.44026 0.46388 0.37402,
-0.43771 0.46919 0.37402,
-0.43569 0.47472 0.37402,
-0.43424 0.48042 0.37402,
-0.43336 0.48625 0.37402,
-0.43307 0.49213 0.37402,
-0.43336 0.49801 0.37402,
-0.43424 0.50383 0.37402,
-0.43569 0.50953 0.37402,
-0.43771 0.51507 0.37402,
-0.44026 0.52037 0.37402,
-0.44333 0.52539 0.37402,
-0.44689 0.53009 0.37402,
-0.45089 0.53440 0.37402,
-0.45531 0.53830 0.37402,
-0.46009 0.54173 0.37402,
-0.46518 0.54468 0.37402,
-0.47055 0.54710 0.37402,
-0.47613 0.54897 0.37402,
-0.48187 0.55028 0.37402,
-0.48771 0.55102 0.37402,
-0.49360 0.55116 0.37402,
-0.49947 0.55072 0.37402,
-0.50527 0.54970 0.37402,
-0.51093 0.54811 0.37402,
-0.51641 0.54596 0.37402,
-0.52165 0.54327 0.37402,
-0.52660 0.54008 0.37402,
-0.53120 0.53640 0.37402,
-0.53542 0.53229 0.37402,
-0.53920 0.52778 0.37402,
-0.54252 0.52292 0.37402,
-0.54533 0.51775 0.37402,
-0.54762 0.51232 0.37402,
-0.54935 0.50670 0.37402,
-0.55052 0.50093 0.37402,
-0.55111 0.49507 0.37402,
-0.55111 0.48918 0.37402,
-0.55052 0.48332 0.37402,
-0.54935 0.47755 0.37402,
-0.54762 0.47193 0.37402,
-0.54533 0.46650 0.37402,
-0.54252 0.46133 0.37402,
-0.53920 0.45647 0.37402,
-0.53542 0.45196 0.37402,
-0.53120 0.44785 0.37402,
-0.52660 0.44418 0.37402,
-0.52165 0.44098 0.37402,
-0.51641 0.43830 0.37402,
-0.51093 0.43615 0.37402,
-0.50527 0.43455 0.37402,
-0.49947 0.43353 0.37402,
-0.49360 0.43309 0.37402,
-0.48771 0.43324 0.37402,
-0.48187 0.43397 0.37402,
-0.47613 0.43528 0.37402,
-0.47055 0.43715 0.37402,
-0.46518 0.43957 0.37402,
-0.46009 0.44252 0.37402,
-0.45531 0.44595 0.37402,
-0.45089 0.44985 0.37402,
-0.44689 0.45417 0.37402,
-0.44333 0.45886 0.37402,
-0.44026 0.46388 0.37402,
-0.43771 0.46919 0.37402,
-0.43569 0.47472 0.37402,
-0.43424 0.48042 0.37402,
-0.43336 0.48625 0.37402,
-0.43307 0.49213 0.37795,
-0.43336 0.49801 0.37795,
-0.43424 0.50383 0.37795,
-0.43569 0.50953 0.37795,
-0.43771 0.51507 0.37795,
-0.44026 0.52037 0.37795,
-0.44333 0.52539 0.37795,
-0.44689 0.53009 0.37795,
-0.45089 0.53440 0.37795,
-0.45531 0.53830 0.37795,
-0.46009 0.54173 0.37795,
-0.46518 0.54468 0.37795,
-0.47055 0.54710 0.37795,
-0.47613 0.54897 0.37795,
-0.48187 0.55028 0.37795,
-0.48771 0.55102 0.37795,
-0.49360 0.55116 0.37795,
-0.49947 0.55072 0.37795,
-0.50527 0.54970 0.37795,
-0.51093 0.54811 0.37795,
-0.51641 0.54596 0.37795,
-0.52165 0.54327 0.37795,
-0.52660 0.54008 0.37795,
-0.53120 0.53640 0.37795,
-0.53542 0.53229 0.37795,
-0.53920 0.52778 0.37795,
-0.54252 0.52292 0.37795,
-0.54533 0.51775 0.37795,
-0.54762 0.51232 0.37795,
-0.54935 0.50670 0.37795,
-0.55052 0.50093 0.37795,
-0.55111 0.49507 0.37795,
-0.55111 0.48918 0.37795,
-0.55052 0.48332 0.37795,
-0.54935 0.47755 0.37795,
-0.54762 0.47193 0.37795,
-0.54533 0.46650 0.37795,
-0.54252 0.46133 0.37795,
-0.53920 0.45647 0.37795,
-0.53542 0.45196 0.37795,
-0.53120 0.44785 0.37795,
-0.52660 0.44418 0.37795,
-0.52165 0.44098 0.37795,
-0.51641 0.43830 0.37795,
-0.51093 0.43615 0.37795,
-0.50527 0.43455 0.37795,
-0.49947 0.43353 0.37795,
-0.49360 0.43309 0.37795,
-0.48771 0.43324 0.37795,
-0.48187 0.43397 0.37795,
-0.47613 0.43528 0.37795,
-0.47055 0.43715 0.37795,
-0.46518 0.43957 0.37795,
-0.46009 0.44252 0.37795,
-0.45531 0.44595 0.37795,
-0.45089 0.44985 0.37795,
-0.44689 0.45417 0.37795,
-0.44333 0.45886 0.37795,
-0.44026 0.46388 0.37795,
-0.43771 0.46919 0.37795,
-0.43569 0.47472 0.37795,
-0.43424 0.48042 0.37795,
-0.43336 0.48625 0.37795] }
 coordIndex [
66,1,0,-1,
66,2,1,-1,
67,3,2,-1,
67,2,66,-1,
68,4,3,-1,
68,3,67,-1,
69,5,4,-1,
69,4,68,-1,
70,6,5,-1,
70,5,69,-1,
71,7,6,-1,
71,6,70,-1,
72,8,7,-1,
72,7,71,-1,
73,9,8,-1,
73,8,72,-1,
74,10,9,-1,
74,9,73,-1,
75,11,10,-1,
75,10,74,-1,
76,12,11,-1,
76,11,75,-1,
77,13,12,-1,
77,12,76,-1,
78,14,13,-1,
78,13,77,-1,
79,15,14,-1,
79,14,78,-1,
80,16,15,-1,
80,15,79,-1,
81,17,16,-1,
81,16,80,-1,
82,18,17,-1,
82,17,81,-1,
83,19,18,-1,
83,18,82,-1,
84,19,83,-1,
84,20,19,-1,
85,20,84,-1,
85,21,20,-1,
86,21,85,-1,
86,22,21,-1,
87,22,86,-1,
87,23,22,-1,
88,24,23,-1,
88,23,87,-1,
89,25,24,-1,
89,24,88,-1,
90,26,25,-1,
90,25,89,-1,
91,27,26,-1,
91,26,90,-1,
92,28,27,-1,
92,27,91,-1,
93,29,28,-1,
93,28,92,-1,
94,30,29,-1,
94,29,93,-1,
95,31,30,-1,
95,30,94,-1,
96,32,31,-1,
96,31,95,-1,
97,33,32,-1,
97,32,96,-1,
98,34,33,-1,
98,33,97,-1,
99,35,34,-1,
99,34,98,-1,
100,36,35,-1,
100,35,99,-1,
101,37,36,-1,
101,36,100,-1,
102,38,37,-1,
102,37,101,-1,
103,39,38,-1,
103,38,102,-1,
104,40,39,-1,
104,39,103,-1,
105,41,40,-1,
105,40,104,-1,
106,42,41,-1,
106,41,105,-1,
107,43,42,-1,
107,42,106,-1,
108,43,107,-1,
108,44,43,-1,
109,44,108,-1,
109,45,44,-1,
110,45,109,-1,
110,46,45,-1,
111,46,110,-1,
111,47,46,-1,
112,47,111,-1,
112,48,47,-1,
113,48,112,-1,
113,49,48,-1,
114,49,113,-1,
114,50,49,-1,
115,50,114,-1,
115,51,50,-1,
116,51,115,-1,
116,52,51,-1,
117,52,116,-1,
117,53,52,-1,
118,53,117,-1,
118,54,53,-1,
119,54,118,-1,
119,55,54,-1,
120,55,119,-1,
120,56,55,-1,
121,56,120,-1,
121,57,56,-1,
122,58,57,-1,
122,57,121,-1,
123,59,58,-1,
123,58,122,-1,
124,60,59,-1,
124,59,123,-1,
125,61,60,-1,
125,60,124,-1,
126,62,61,-1,
126,61,125,-1,
127,63,62,-1,
127,62,126,-1,
65,64,63,-1,
65,63,127,-1,
183,182,181,-1,
190,189,188,-1,
131,130,129,-1,
133,132,131,-1,
135,134,133,-1,
136,129,128,-1,
136,138,137,-1,
136,139,138,-1,
136,140,139,-1,
136,141,140,-1,
136,142,141,-1,
136,143,142,-1,
136,144,143,-1,
136,145,144,-1,
136,146,145,-1,
136,147,146,-1,
136,148,147,-1,
136,149,148,-1,
136,150,149,-1,
136,151,150,-1,
136,152,151,-1,
136,153,152,-1,
136,154,153,-1,
136,155,154,-1,
136,156,155,-1,
136,157,156,-1,
136,183,181,-1,
136,158,157,-1,
136,159,158,-1,
136,160,159,-1,
136,161,160,-1,
136,162,161,-1,
136,163,162,-1,
136,164,163,-1,
136,165,164,-1,
136,166,165,-1,
136,167,166,-1,
136,168,167,-1,
136,169,168,-1,
136,170,169,-1,
136,171,170,-1,
136,172,171,-1,
136,173,172,-1,
136,174,173,-1,
136,175,174,-1,
136,176,175,-1,
136,177,176,-1,
136,178,177,-1,
136,179,178,-1,
136,180,179,-1,
136,181,180,-1,
136,184,183,-1,
136,185,184,-1,
136,190,188,-1,
136,186,185,-1,
136,187,186,-1,
136,188,187,-1,
136,128,190,-1,
136,133,131,-1,
136,135,133,-1,
136,131,129,-1,
246,244,245,-1,
253,251,252,-1,
194,192,193,-1,
196,194,195,-1,
198,196,197,-1,
199,191,192,-1,
199,200,201,-1,
199,201,202,-1,
199,202,203,-1,
199,203,204,-1,
199,204,205,-1,
199,205,206,-1,
199,206,207,-1,
199,207,208,-1,
199,208,209,-1,
199,209,210,-1,
199,210,211,-1,
199,211,212,-1,
199,212,213,-1,
199,213,214,-1,
199,214,215,-1,
199,215,216,-1,
199,216,217,-1,
199,217,218,-1,
199,218,219,-1,
199,219,220,-1,
199,244,246,-1,
199,220,221,-1,
199,221,222,-1,
199,222,223,-1,
199,223,224,-1,
199,224,225,-1,
199,225,226,-1,
199,226,227,-1,
199,227,228,-1,
199,228,229,-1,
199,229,230,-1,
199,230,231,-1,
199,231,232,-1,
199,232,233,-1,
199,233,234,-1,
199,234,235,-1,
199,235,236,-1,
199,236,237,-1,
199,237,238,-1,
199,238,239,-1,
199,239,240,-1,
199,240,241,-1,
199,241,242,-1,
199,242,243,-1,
199,243,244,-1,
199,246,247,-1,
199,247,248,-1,
199,251,253,-1,
199,248,249,-1,
199,249,250,-1,
199,250,251,-1,
199,253,191,-1,
199,194,196,-1,
199,196,198,-1,
199,192,194,-1] } }
